<svg xmlns="http://www.w3.org/2000/svg" width="1200" height="1200"><g fill="#FFF"><path d="M157.142 85.715v28.568h-28.571v28.571H100v57.145h28.571v-28.571h28.571v-28.574h28.571v28.574h28.571v28.571h28.574v-57.145h-28.574v-28.571h-28.571V85.715z"/><path d="M157.142 199.999v28.571h-28.571v28.571H100v57.145h28.571v-28.571h28.571v-28.574h28.571v28.574h28.571v28.571h28.574v-57.145h-28.574V228.57h-28.571v-28.571zM157.142 314.286v28.571h-28.571v28.571H100v57.142h28.571v-28.571h28.571v-28.571h28.571v28.571h28.571v28.571h28.574v-57.142h-28.574v-28.571h-28.571v-28.571z"/><path d="M157.142 428.57v28.571h-28.571v28.571H100v57.145h28.571v-28.571h28.571v-28.574h28.571v28.574h28.571v28.571h28.574v-57.145h-28.574v-28.571h-28.571V428.57z"/><path d="M157.142 542.856v28.571h-28.571v28.571H100v57.146h28.571v-28.571h28.571v-28.575h28.571v28.575h28.571v28.571h28.574v-57.146h-28.574v-28.571h-28.571v-28.571z"/><path d="M157.142 657.143v28.568h-28.571v28.571H100v57.145h28.571v-28.571h28.571v-28.574h28.571v28.574h28.571v28.571h28.574v-57.145h-28.574v-28.571h-28.571v-28.568zM157.142 771.427v28.571h-28.571v28.571H100v57.145h28.571v-28.571h28.571v-28.574h28.571v28.574h28.571v28.571h28.574v-57.145h-28.574v-28.571h-28.571v-28.571z"/><path d="M157.142 885.714v28.571h-28.571v28.571H100v57.142h28.571V971.43h28.571v-28.574h28.571v28.574h28.571v28.568h28.574v-57.142h-28.574v-28.571h-28.571v-28.571z"/><path d="M157.142 999.997v28.571h-28.571v28.571H100v57.146h28.571v-28.571h28.571v-28.575h28.571v28.575h28.571v28.571h28.574v-57.146h-28.574v-28.571h-28.571v-28.571z"/><path d="M357.141 999.997v28.571H328.57v28.571h-28.571v-28.571h-28.575v-28.571h-28.567v57.142h28.567v28.575h28.575v28.571h28.571v-28.571h28.571v-28.575h28.571v-57.142z"/><path d="M357.141 885.713v28.571H328.57v28.571h-28.571v-28.571h-28.571v-28.571h-28.571v57.142h28.571v28.571h28.571v28.571h28.571v-28.571h28.571v-28.571h28.571v-57.142zM357.141 771.427v28.571H328.57v28.572h-28.571v-28.572h-28.571v-28.571h-28.571v57.143h28.571v28.571h28.571v28.571h28.571v-28.571h28.571V828.57h28.571v-57.143zM357.141 657.142v28.571H328.57v28.571h-28.571v-28.571h-28.571v-28.571h-28.571v57.142h28.571v28.571h28.571v28.571h28.571v-28.571h28.571v-28.571h28.571v-57.142zM357.141 542.856v28.571H328.57v28.571h-28.571v-28.571h-28.571v-28.571h-28.571v57.142h28.571v28.571h28.571v28.571h28.571v-28.571h28.571v-28.571h28.571v-57.142zM357.141 428.571v28.571H328.57v28.571h-28.571v-28.571h-28.571v-28.571h-28.571v57.142h28.571v28.571h28.571v28.571h28.571v-28.571h28.571v-28.571h28.571v-57.142zM357.141 314.285v28.571H328.57v28.571h-28.571v-28.571h-28.571v-28.571h-28.571v57.142h28.571v28.571h28.571v28.571h28.571v-28.571h28.571v-28.571h28.571v-57.142zM357.141 200v28.571H328.57v28.571h-28.571v-28.571h-28.571V200h-28.571v57.142h28.571v28.571h28.571v28.571h28.571v-28.571h28.571v-28.571h28.571V200zM357.141 85.715v28.568H328.57v28.571h-28.571v-28.571h-28.575V85.715h-28.567v57.139h28.567v28.574h28.575v28.571h28.571v-28.571h28.571v-28.574h28.571V85.715zM442.856 85.715v28.568h-28.571v28.571h-28.571v57.145h28.571v-28.571h28.571v-28.574h28.571v28.574h28.571v28.571h28.574v-57.145h-28.574v-28.571h-28.571V85.715zM414.284 314.285v-28.571h28.571v-28.571h28.571v28.571h28.571v28.571h28.571v-57.142h-28.571v-28.571h-28.571v-28.571h-28.571v28.571h-28.571v28.571h-28.571v57.142zM414.284 428.571V400h28.571v-28.572h28.571V400h28.571v28.571h28.571v-57.143h-28.571v-28.57h-28.571v-28.572h-28.571v28.572h-28.571v28.57h-28.571v57.143zM414.284 542.856v-28.571h28.571v-28.571h28.571v28.571h28.571v28.571h28.571v-57.142h-28.571v-28.571h-28.571v-28.571h-28.571v28.571h-28.571v28.571h-28.571v57.142zM414.284 657.142v-28.571h28.571V600h28.571v28.571h28.571v28.571h28.571V600h-28.571v-28.571h-28.571v-28.571h-28.571v28.571h-28.571V600h-28.571v57.142zM414.284 771.427v-28.571h28.571v-28.571h28.571v28.571h28.571v28.571h28.571v-57.142h-28.571v-28.571h-28.571v-28.571h-28.571v28.571h-28.571v28.571h-28.571v57.142zM414.284 885.713v-28.571h28.571v-28.571h28.571v28.571h28.571v28.571h28.571v-57.142h-28.571V800h-28.571v-28.571h-28.571V800h-28.571v28.571h-28.571v57.142zM414.284 999.998v-28.571h28.571v-28.571h28.571v28.571h28.571v28.571h28.571v-57.142h-28.571v-28.571h-28.571v-28.571h-28.571v28.571h-28.571v28.571h-28.571v57.142z"/><path d="M442.856 999.997v28.571h-28.571v28.571h-28.571v57.146h28.571v-28.571h28.571v-28.575h28.571v28.575h28.571v28.571h28.574v-57.146h-28.574v-28.571h-28.571v-28.571z"/><path d="M642.855 999.997v28.571h-28.571v28.571h-28.571v-28.571h-28.575v-28.571h-28.567v57.142h28.567v28.575h28.575v28.571h28.571v-28.571h28.571v-28.575h28.571v-57.142z"/><path d="M642.855 885.713v28.571h-28.571v28.571h-28.571v-28.571h-28.571v-28.571h-28.571v57.142h28.571v28.571h28.571v28.571h28.571v-28.571h28.571v-28.571h28.571v-57.142zM642.855 771.427v28.571h-28.571v28.572h-28.571v-28.572h-28.571v-28.571h-28.571v57.143h28.571v28.571h28.571v28.571h28.571v-28.571h28.571V828.57h28.571v-57.143zM642.855 657.142v28.571h-28.571v28.571h-28.571v-28.571h-28.571v-28.571h-28.571v57.142h28.571v28.571h28.571v28.571h28.571v-28.571h28.571v-28.571h28.571v-57.142zM642.855 542.856v28.571h-28.571v28.571h-28.571v-28.571h-28.571v-28.571h-28.571v57.142h28.571v28.571h28.571v28.571h28.571v-28.571h28.571v-28.571h28.571v-57.142zM642.855 428.571v28.571h-28.571v28.571h-28.571v-28.571h-28.571v-28.571h-28.571v57.142h28.571v28.571h28.571v28.571h28.571v-28.571h28.571v-28.571h28.571v-57.142zM642.855 314.285v28.571h-28.571v28.571h-28.571v-28.571h-28.571v-28.571h-28.571v57.142h28.571v28.571h28.571v28.571h28.571v-28.571h28.571v-28.571h28.571v-57.142zM642.855 200v28.571h-28.571v28.571h-28.571v-28.571h-28.571V200h-28.571v57.142h28.571v28.571h28.571v28.571h28.571v-28.571h28.571v-28.571h28.571V200zM642.855 85.715v28.568h-28.571v28.571h-28.571v-28.571h-28.575V85.715h-28.567v57.139h28.567v28.574h28.575v28.571h28.571v-28.571h28.571v-28.574h28.571V85.715zM728.57 85.715v28.568h-28.571v28.571h-28.571v57.145h28.571v-28.571h28.571v-28.574h28.571v28.574h28.571v28.571h28.574v-57.145h-28.574v-28.571h-28.571V85.715zM699.998 314.285v-28.571h28.571v-28.571h28.571v28.571h28.571v28.571h28.571v-57.142h-28.571v-28.571H757.14v-28.571h-28.571v28.571h-28.571v28.571h-28.571v57.142zM699.998 428.571V400h28.571v-28.572h28.571V400h28.571v28.571h28.571v-57.143h-28.571v-28.57H757.14v-28.572h-28.571v28.572h-28.571v28.57h-28.571v57.143zM699.998 542.856v-28.571h28.571v-28.571h28.571v28.571h28.571v28.571h28.571v-57.142h-28.571v-28.571H757.14v-28.571h-28.571v28.571h-28.571v28.571h-28.571v57.142zM699.998 657.142v-28.571h28.571V600h28.571v28.571h28.571v28.571h28.571V600h-28.571v-28.571H757.14v-28.571h-28.571v28.571h-28.571V600h-28.571v57.142zM699.998 771.427v-28.571h28.571v-28.571h28.571v28.571h28.571v28.571h28.571v-57.142h-28.571v-28.571H757.14v-28.571h-28.571v28.571h-28.571v28.571h-28.571v57.142zM699.998 885.713v-28.571h28.571v-28.571h28.571v28.571h28.571v28.571h28.571v-57.142h-28.571V800H757.14v-28.571h-28.571V800h-28.571v28.571h-28.571v57.142zM699.998 999.998v-28.571h28.571v-28.571h28.571v28.571h28.571v28.571h28.571v-57.142h-28.571v-28.571H757.14v-28.571h-28.571v28.571h-28.571v28.571h-28.571v57.142z"/><path d="M728.57 999.997v28.571h-28.571v28.571h-28.571v57.146h28.571v-28.571h28.571v-28.575h28.571v28.575h28.571v28.571h28.574v-57.146h-28.574v-28.571h-28.571v-28.571z"/><path d="M928.569 999.997v28.571h-28.571v28.571h-28.571v-28.571h-28.575v-28.571h-28.567v57.142h28.567v28.575h28.575v28.571h28.571v-28.571h28.571v-28.575h28.571v-57.142z"/><path d="M928.569 885.713v28.571h-28.571v28.571h-28.571v-28.571h-28.571v-28.571h-28.571v57.142h28.571v28.571h28.571v28.571h28.571v-28.571h28.571v-28.571h28.571v-57.142zM928.569 771.427v28.571h-28.571v28.572h-28.571v-28.572h-28.571v-28.571h-28.571v57.143h28.571v28.571h28.571v28.571h28.571v-28.571h28.571V828.57h28.571v-57.143zM928.569 657.142v28.571h-28.571v28.571h-28.571v-28.571h-28.571v-28.571h-28.571v57.142h28.571v28.571h28.571v28.571h28.571v-28.571h28.571v-28.571h28.571v-57.142zM928.569 542.856v28.571h-28.571v28.571h-28.571v-28.571h-28.571v-28.571h-28.571v57.142h28.571v28.571h28.571v28.571h28.571v-28.571h28.571v-28.571h28.571v-57.142zM928.569 428.571v28.571h-28.571v28.571h-28.571v-28.571h-28.571v-28.571h-28.571v57.142h28.571v28.571h28.571v28.571h28.571v-28.571h28.571v-28.571h28.571v-57.142zM928.569 314.285v28.571h-28.571v28.571h-28.571v-28.571h-28.571v-28.571h-28.571v57.142h28.571v28.571h28.571v28.571h28.571v-28.571h28.571v-28.571h28.571v-57.142zM928.569 200v28.571h-28.571v28.571h-28.571v-28.571h-28.571V200h-28.571v57.142h28.571v28.571h28.571v28.571h28.571v-28.571h28.571v-28.571h28.571V200zM928.569 85.715v28.568h-28.571v28.571h-28.571v-28.571h-28.575V85.715h-28.567v57.139h28.567v28.574h28.575v28.571h28.571v-28.571h28.571v-28.574h28.571V85.715zM1014.284 85.715v28.568h-28.571v28.571h-28.571v57.145h28.571v-28.571h28.571v-28.574h28.571v28.574h28.571v28.571H1100v-57.145h-28.574v-28.571h-28.571V85.715z"/><path d="M1014.284 199.999v28.571h-28.571v28.571h-28.571v57.145h28.571v-28.571h28.571v-28.574h28.571v28.574h28.571v28.571H1100v-57.145h-28.574V228.57h-28.571v-28.571zM1014.284 314.286v28.571h-28.571v28.571h-28.571v57.142h28.571v-28.571h28.571v-28.571h28.571v28.571h28.571v28.571H1100v-57.142h-28.574v-28.571h-28.571v-28.571z"/><path d="M1014.284 428.57v28.571h-28.571v28.571h-28.571v57.145h28.571v-28.571h28.571v-28.574h28.571v28.574h28.571v28.571H1100v-57.145h-28.574v-28.571h-28.571V428.57z"/><path d="M1014.284 542.856v28.571h-28.571v28.571h-28.571v57.146h28.571v-28.571h28.571v-28.575h28.571v28.575h28.571v28.571H1100v-57.146h-28.574v-28.571h-28.571v-28.571z"/><path d="M1014.284 657.143v28.568h-28.571v28.571h-28.571v57.145h28.571v-28.571h28.571v-28.574h28.571v28.574h28.571v28.571H1100v-57.145h-28.574v-28.571h-28.571v-28.568zM1014.284 771.427v28.571h-28.571v28.571h-28.571v57.145h28.571v-28.571h28.571v-28.574h28.571v28.574h28.571v28.571H1100v-57.145h-28.574v-28.571h-28.571v-28.571z"/><path d="M1014.284 885.714v28.571h-28.571v28.571h-28.571v57.142h28.571V971.43h28.571v-28.574h28.571v28.574h28.571v28.568H1100v-57.142h-28.574v-28.571h-28.571v-28.571z"/><path d="M1014.284 999.997v28.571h-28.571v28.571h-28.571v57.146h28.571v-28.571h28.571v-28.575h28.571v28.575h28.571v28.571H1100v-57.146h-28.574v-28.571h-28.571v-28.571z"/></g></svg>