<svg xmlns="http://www.w3.org/2000/svg" viewBox="0 0 340 275"><path d="M192.1 79.2c-.1-.2-.2-.4-.5-.4-.2 0-.4.2-.4.4 0 .3.2.3.4.3s.4.1.5-.3m-29.4 148.6c-.1-.5-.5-.7-.8-.9 0 0-.2 0-.2.1-.1 0-.1.2-.1.2.3.3.5.7 1.1.6m-2 2.9c.2 0 .3-.1.3-.3 0-.4-.2-.6-.6-.6-.2 0-.3 0-.3.3-.1.3.2.5.6.6M72.6 47.5c-.2.5-.2.9 0 1.2.1.2.4.4.6.2.3-.1.3-.4.2-.6-.2-.2-.3-.6-.8-.8m78.6 157.2c.6.7 1.2.5 1.9.4.1 0 .2-.1.2-.3 0-.2-.2-.3-.4-.3-.6 0-1.2.1-1.7.2m-19.8 27.1c-.2.6-.3 1.1-.1 1.7.1.3.3.3.6.3.1 0 .2-.2.2-.3-.5-.5-.3-1.2-.7-1.7m58.1-152.3c-.5-.6-.6-.7-1.3-.7-.4 0-.7.2-.7.7.7.1 1.4.1 2 0m-25.9 147.4c.6-.8.3-1.5.2-2.2 0-.2-.4-.1-.4.1-.4.8 0 1.3.2 2.1m-30.4-9.2c-2.1 1.5-2.4 2.1-1.7 3.1.3-1.2 1.5-1.8 1.7-3.1m88.3-182.6c.8-.5.9-1 .9-1.6v-6.3c0-.4-.1-.7-.4-1-.2-.2-.5-.4-.8-.1-.2.2-.4.4-.1.7.4.5.5 1.2.4 1.9-.1 2 .1 4.1 0 6.4m-57.4 62.2c3.2 4.4 3.1 6.7 0 10.9.5-.5 1-.6 1.6-.6.2 0 .4-.2.4-.4s.1-.5.2-.7c.7-.9 1-2 .9-3.2-.1-.4-.1-.8 0-1.2.3-1-.8-1.8-.6-2.8 0-.1-.1-.2-.2-.2-.5-.1-1.3-.2-.5-1 .1-.2-.1-.4-.3-.5-.3-.5-.8-.4-1.5-.3M159.6 224c.4-1 .9-1.8 1.2-2.6.5-1.3 1.6-2.4 1.3-3.9 0-.1 0-.3.1-.3.8-.5.4-1.3.5-2 .2-1.4-.5-2.4-1.4-3.4-.2-.2-.4-.7-.7-.4-.3.3.1.6.2.8.1.1.2.2.2.3.6.5.8 1.1.7 1.9-.1.6 0 1.2 0 1.7 0 .3 0 .6-.2.8-.4.3-.5.7-.4 1.2 0 .2-.1.5-.2.7-.5.7-.3 1.7-1 2.3.2.6-.2 1-.5 1.4-.2.3-.2.8.2 1.5M79.3 51.3c1.4-.1 2.9.5 4.1-.6.1-.1.3-.1.5 0 1 .2 1.6-.6 2.5-.8.2-.1.4-.3.5-.5.2-.3.2-.6-.1-.8-.2-.2-.5 0-.7.1-.8.5-1.5 1.2-2.6 1-.1 0-.3 0-.3.1-.5.7-1.2.5-1.8.5-.8 0-1.6-.1-2.4 0-1.3.1-2.6-.1-3.7-.9-.2-.1-.3-.2-.5-.1-.5.3-.6.8-.1 1 .9.4 1.6 1.1 2.7 1 .7-.1 1.4.1 1.9 0m76 188.6c.1.5.4.5.6.8.5.8 1.5 1 2.3 1.3.7.3 1.4-.1 2.1-.5 1.6-.8 2.4-2 2.4-3.7 0-.4.1-.8.2-1.2.1-.4.5-.6.5-1-.1-.8-.3-1.8.1-2.4.6-.9.3-1.5-.1-2.3-.1-.2 0-.5 0-.7 0-.3.1-.6-.1-.8h-.1c-.6.3-.8.8-.7 1.4.1.7 0 1.4.4 2.1.5.8-.7 1.3-.5 2.2.4 1.7-.7 3.1-1.3 4.6-.2.5-.7.9-1.4.8-.5-.1-1.1 0-1.6 0-1-.1-1.9-.2-2.8-.6m-22.2-6.9c-.5 1.6-.2 2.1 1.4 2.4.2 0 .4 0 .6.2.3.5.9.4 1.3.4h13.1c.6 0 1.2 0 1.7.1s1 .1 1.5.1c.2 0 .5-.1.5-.3 0-.3-.2-.4-.5-.4h-.1c-.7.2-1.3.2-1.8-.4-.1-.2-.4-.1-.6-.1-.5 0-.9.1-1.4.1h-12.2c-1.3 0-2.5-.4-3.1-1.7 0-.1-.1-.3-.4-.4m30.4-179.6c-.3.8.1 1.5-.3 2-.4.6-.4 1.2-.3 1.8.1 2.4 0 4.9.1 7.3 0 1.7 0 3.4-.1 5.1 0 .7.3 1.5-.5 2.1-.2.1-.1.5-.1.7 0 .3 0 .5-.2.7-.3.3-.4.7-.4 1.1 0 .3 0 .5-.2.7-.5.4-.4.9-.4 1.4 0 .2 0 .6-.1.7-1 .9-.2 2.3-1 3.3.5 1.1 0 2.1 0 3.2 0 .2 0 .5.1.7.6 1 .2 2.3.9 3.2v.2c0 .8-.2 1.6.6 2.2.2.1.1.4.1.6-.1.3-.1.6.2.8.4.4.4.8.4 1.3 0 .4.1.8.3 1.2.3.7.8 1.2.8 2 0 .3 0 .7.4.7s.3-.4.3-.7c0-.2 0-.5-.2-.7-.4-.7-.5-1.5-.6-2.2-.1-.9-.8-1.6-.5-2.6 0-.1 0-.2-.1-.2-.6-.5-.5-1.2-.5-1.8 0-.3 0-.5-.2-.7-.4-.4-.4-1-.4-1.5 0-.3 0-.6-.2-.8-.5-.5-.4-1-.5-1.6 0-1.1-.1-2.2 0-3.4 0-.9.2-1.7.6-2.6.4-1 1.4-2 1.2-3.2.6-.7.7-1.5.7-2.4 0-.1.1-.2.2-.3.4-.3.4-.8.4-1.2V55.1c-.1-.7-.1-1.2-.5-1.7m8.6 117.1c.2.8-.1 1.7.2 2.6.5 2 2.1 2 3.2.8 1-1.1 2.1-2.2 2.6-3.7.2-.6.1-1.2.1-1.8.1-1.1-.8-.7-1.2-1-.3-.2-.7-.3-1-.5-1-.6-2-.3-3 .1-.3.1-.7.4-.7.8 0 .8-.9 1.5-.2 2.3.1 0 .1.2 0 .4m135-61.9c.1-.7-.3-1.4-.3-2.1 0-.3-.3-.5-.6-.5-.5 0-.8-.1-.9-.6-.2-.5-.5-.6-1.1-.3-.7.4-1.2 1-1.7 1.6-.5.5-.8 1.1-.7 1.8.1.5 0 .9-.3 1.3-.2.3-.2.6 0 .9.1.2.3.4.3.5-.2 1.1.5 1.9.7 2.9.1.6.6 1 1.1 1.2.4.2.7-.4 1-.7.3-.3.5-.6.6-.9.2-.7.7-1.3.9-2 .5-1 .9-2 1-3.1m-56.3 129.2c.2-1.3-.5-2.4-.8-3.6-.3-1-.8-1.9-1.2-2.8-.1-.4-.5-.6-.9-.5-.3 0-.5.3-.6.6-.1.5-.4.9-.7 1.3-.3.3-.5.7-.4 1.1 0 .3-.1.5-.2.7-.4 1-1 2-1.1 3.1-.1.7-.3 1.5 0 2.1.2.6.6 1.2 1.1 1.6.7.8 1.7.8 2.6.7.3 0 .8 0 1-.4.4-1.3 1.4-2.4 1.2-3.9M177 33.9c-.1.8.2 1.6.3 2.6.1 1.4.9 2.7 1.6 3.9.5.8.8.8 1.4.1.3-.3.6-.7.8-1.1.6-1.3 1.3-2.5 1.7-3.8.2-.7.5-1.5.6-2.2.2-1.5-.5-2.7-1.7-3.6-1.2-.8-2.9-.4-3.8.8-.7.9-.9 2-.9 3.3M40.5 210.2c-.5.3-.8.6-1.1 1-.2.2-.3.4-.3.6.1 1.7.3 3.3 1.4 4.7.5.6.9 1.2 1.1 1.9.2.6.6 1.1 1 1.6 1.7 2 3.6 3.7 5.8 5.2.2.2.5.3.8.3.4.1.7.3 1.1.5.4.2.6.8 1.1.4.5-.5 0-.9-.2-1.4-.1-.3-.4-.5-.6-.8-.2-.2-.5-.4-.5-.7-.1-1.3-1.2-2.2-1.7-3.4-.9-1.8-1.9-3.6-3-5.3-.8-1.3-1.4-2.7-2.9-3.5-.1-.1-.3-.2-.3-.4-.2-.8-1-1-1.3-1.7-.2-.3-.4-.3-.6-.1-.2.2-.6.1-.6.5.2.3.5.2.8.6M287.8 46.3c.1.8 0 1.5.3 2 1.9 3.1 3.3 6.5 5.4 9.5.9 1.3 1.5 2.9 3 3.7.2.1.2.3.2.4.5 1.1 1.6 1.6 2.7 2.1.2-.5 0-1 .4-1.3.4-.4.7.4 1.1.1 0-1-.6-1.9-.3-2.9 0-.1-.1-.3-.2-.4-.2-.2-.3-.5-.3-.8.1-.7-.3-1.3-.7-1.8-.2-.2-.4-.4-.5-.7-.5-1.5-1.5-2.6-2.4-3.9-.8-1-1.8-1.7-2.8-2.6-1.7-1.2-3.7-2.2-5.9-3.4M131.3 206.5c-.2 1.3-.1 1.5 1.1 2 .2.1.4.1.4.2.6.7 1.4.3 2.1.4.9.1 1.5-.1 2-.9.1-.1.2-.3.4-.3 1.2-.4 2.1-1.4 3.1-2.1.6-.4 1.3-.8 1.9-1.3.9-.8 1.7-1.6 2.7-2.3 1.1-.7 2-1.6 3.1-2.4 2.1-1.7 3.9-3.7 6-5.5 2.6-2.1 4.8-4.6 7.1-7 .4-.4.6-.8.9-1.3.5-.9 1.4-1.5 1.2-2.7.6-.4.4-1 .4-1.6 0-4.3-.1-8.6 0-12.9 0-6.5.1-12.9.1-19.4 0-7.8.1-15.5-.1-23.3-.1-4.6 0-9.1 0-13.7 0-.9.1-1.7.1-2.6 0-.2-.1-.4-.4-.4-.2 0-.2.2-.2.4 0 .8 0 1.6-.5 2.4-.1.1 0 .3 0 .5v38.9c0 9.6 0 19.2.1 28.9 0 1.3-.4 2.5-.7 3.6-.4 1.3-1.4 2.6-2.4 3.6-1.1 1.2-2.4 2.3-3.8 3.3-2.2 1.7-3.9 3.9-6.1 5.6-1.9 1.4-3.5 3.1-5.3 4.7-1.4 1.2-3 2.1-4.2 3.4l-.1.1c-1.2.6-2.4 1.3-3.4 2.3-.5.5-1.4.2-2 .7 0 0-.2-.1-.3-.2-.3-.3-.7-.3-1-.5-.3-.3-.5-.3-.9 0-.6.4-.8.3-1.1-.4.1.1.2-.1-.2-.2m43-183.1c-.5-.2-1-.1-1.5-.1H79.3c-1.1 0-2.2 0-3.3.6-1.3.7-2.3 1.8-2.3 3.3V47.1c0 .4.2.8.6.8.6 0 .4-.5.4-.9V28c0-1 .6-1.6.9-2.5.1-.2.3-.4.5-.5 1-.4 1.9-.8 3.1-.8H173.5c.6.2.8-.1.8-.8M32.9 173.1c.2-.8.7-1.4.9-2.1.3-.7.8-1.3 1.4-1.9.6-.6 1.4-1 1.9-1.8 1.5-2.2 1.7-3.6.7-6.1 0-.1-.1-.2-.1-.4.1-.7-.2-1.3-.5-1.9-.2-.6-.5-1-.9-1.4-.4-.4-.4-1.3-1.3-.7 0 0-.2-.1-.3-.2-.3-.4-.6-.8-.5-1.3v-4.7c0-.4.1-.8-.2-1.1-.5-.5-.4-1.1-.4-1.6-.1-1.5.3-3-.6-4.3-.1-.2-.1-.4-.1-.6 0-1.1-.7-1.8-1.2-2.7-.2-.3-.7-.4-.8.1-.1.5-.6.9-.6 1.5-.2 1.5-1.2 2.6-1.4 4-.1.6-.4 1.1-.4 1.8 0 .4-.1.7-.2 1.1-.3.6-.4 1.3-.3 1.9 0 .5.1 1 0 1.5-.7 2-.5 4.1-.2 6.1.2 1.4.2 2.8.7 4.1.3 1 .4 2.1.7 3.1 0 .2.1.3 0 .5-.1 1.1.4 2 .8 2.9.6 1.5 1.7 2.7 2.6 4 0 .1.1.1.3.2M177.7 56.7c-.2-.1-.4-.1-.5-.2-.8-.3-1-.2-1 .7 0 .8.2 1.6.6 2.2.8 1.5 1.5 3 2.7 4.3.8.8 1.5 1.6 2.5 2.1.2.1.4.2.6 0 .1-.1 0-.3 0-.4-.2-.3-.3-.6-.3-.9 0-.2 0-.5.3-.6.2-.1.4 0 .5.2.3.3.5.7 1 .8.6.1 1.1.5 1.7.7 1.3.5 2.7.7 4 .4 1.9-.4 3.3-1.8 4.4-3.4 1.7-2.2 2.7-4.8 3.8-7.4.4-1 .4-2 0-3-.4-.9-1.5-1.1-1.9-2 0-.1-.1-.1-.2-.1-1.5-.5-2.7-1.3-3.7-2.4-.1-.1-.3-.3-.5-.4-1.1-.6-2.1-1.1-3.2-1.6-.4-.2-.8-.4-1.2-.3-1.8.4-3.5 1-4.8 2.4-1.2 1.4-2.2 2.9-3.2 4.4-1 1.3-2 2.6-1.6 4.5m24.7-31h-14.1c-.2 0-.4.2-.4.4.1 1.1-.4 2.1-.4 3.2 0 .9.2 1.8.4 2.8.2 1 .4 1.9.7 2.8.5 1.4 1.1 2.7 1.1 4.2 0 .3.2.6.3.9.1.4.4.6.8.7 1 0 1.9.1 2.9.5.6.3 1.2.4 1.7.8.3.2.6.4 1 .5 1.5.4 3 .9 4.3 1.8.5.3 1 .7 1.6 1 .2.1.6.3.8.1.4-.3.7-.8 1.3-.7.8-1 2-1.4 3-2.1.7-.5 1.3-1.1 2.1-1.5.8-.4 1.5-.8 2.3-1.3 1.1-.6 2.1-1.4 3.2-1.9 1.5-.8 2.9-1.7 4.4-2.3.5-.2.6-.4.6-.9.1-2.3-.2-4.6.2-6.9.1-.4-.2-.8-.4-1.2-.2-.4-.6-.1-.8-.2-1-.4-2.1.1-3-.8-.1-.1-.3 0-.5 0-4.2.1-8.7.1-13.1.1m-70 200.7v4.7c0 .5.1.9.6.8.7 0 1 .4 1.5.8.5.5 1 1 1.9 1 4.4-.1 8.8 0 13.2 0 .7 0 1.3-.2 1.8.5.1.1.3.2.5.1.9-.3 1.5.1 2.2.5 1 .6 1.9 1.3 2.4 2.4.4 1.1 1.4 1.4 2.2 1.8.6.3 1-.7 1.5-1.1l.6-.6c.2-.2.4-.4.3-.7-.4-1.1.7-2.3-.1-3.4-.1-.1.1-.3.1-.5.4-.8.3-.9-.5-1.2-.3-.1-.7 0-.9-.4-.4-.8-1-1.7-.6-2.7.2-.6 0-.9-.3-1.3-.3-.3-.8-.6-.8-1.2.2-1.5-.5-3 .5-4.4.1-.1 0-.4 0-.6 0-.2 0-.4.1-.6.6-.9 1.2-1.9 1.1-3 0-.2 0-.4.1-.5.8-1 .6-2.2.3-3.2-.3-1.1-.5-2.3-1.1-3.3-.1-.1-.2-.3-.2-.5.3-.8-.3-1-.7-1.3-.4-.3-.9-.6-1.3-.9-.9-.6-1.9-1.3-2.8-1.3-1.4-.1-3-.7-4.4.4-.2.1-.4.1-.6 0-.2 0-.4-.1-.6.1-.7.6-1.8.8-2.3 1.7-.2.2-.3.5-.7.5-.5 0-.8.4-1.1.7-.7.7-1.3 1.4-2 2-.9.8-1.7 1.6-2.7 2.3-1 .6-2 1.4-2.9 2.2-1 .8-1.8 1.8-2.7 2.7-1.1 1-1.6 2.2-1.5 3.7 0 1.4-.1 2.6-.1 3.8m-75 2.3c.4 2 .6 2.3 2.1 3.2 1.8 1 3.5 2 5.6 2.5 1.4.3 2.6 1.2 4.1 1.1.1 0 .2 0 .2.1.6.5 1.4.4 2.1.5.9.1 1.8.2 2.6.4 1 .2 2 .2 3.1.3 2.7 0 5.4.1 8-.2.7-.1 1.4-.5 2.1-.4 1.8.1 3.5-.6 5.2-.9 1.1-.2 2.2-.1 3.2-.8.1-.1.4 0 .6 0 .2 0 .5 0 .7-.1 1.2-.6 2.6-.8 3.9-1.3 1.3-.5 2.7-1 4-1.4.8-.3 1.7-.6 2.5-.9 1.6-.5 3.1-1.3 4.6-1.9 1.2-.5 2.4-1.1 3.6-1.7 2.5-1.3 5.1-2.5 7.5-4 .9-.6 1.9-1 2.8-1.6 1.1-.7 2.1-1.5 3.2-2.1 1.6-.9 3-2.1 4.4-3.2 1.1-.9 2.5-1.5 3.4-2.7 0-.1.1-.1.2-.1 1.9-.9 3.1-2.5 4.8-3.7.9-.6 1.4-1.6 2.5-1.9.2 0 .3-.2.5-.4 1-1.3 2.3-2.3 3.4-3.4 1.1-1 2.4-1.7 3.9-1.9.6-.1 1.3 0 1.9-.5.2-.2.5-.2.7 0 .5.6 1.2.4 1.9.5 1.7.4 3 1.5 4.5 2.2.6 1.2 2.3 1.5 2.5 3 .9.9 1 2.2 1.5 3.2.6 1.1 0 2.4.3 3.5.1.4.1 1-.1 1.3-.6.9-1.1 1.9-1.4 2.9-.5 1.3-1.3 2.5-1.9 3.8-.5.9-1 1.9-1.4 2.9-.2.3-.4.9.1 1.1.5.2.3-.5.4-.7 0 0 0-.1.1-.1.7-1.5 1.4-3 2.2-4.4.9-1.4 1.2-3 2.2-4.3.5-.6.4-1.3.8-1.9.3-.5 1.2-.8.7-1.6 0 0 .1-.2.2-.2.5-.1.6-.5.7-.9.4-.9.8-1.8 1.3-2.5 1.4-1.8 2.1-4 3.2-6 1.2-2.2 2.1-4.6 3.4-6.7.5-.9.9-1.7.8-2.8-.1-.4 0-.8.3-1.1.6-.7.5-1.5.3-2.3-.5-1.9-.9-3.8-1.5-5.7-.1-.5 0-1-.3-1.4-.8-1.2-.7-2.6-1.1-3.8-.3-.9-.9-1.3-1.6-1.8-.1-.1-.2 0-.3 0-1.2.7-2.3 1.4-3.1 2.7-.3.5-.7.9-1.1 1.3-1.2 1.3-2.6 2.4-3.7 3.8-.6.7-.9 1.5-1.6 2.1-1.8 1.6-3.3 3.4-5.3 4.8-2.2 1.6-3.8 4-6.1 5.5-1 .7-1.8 1.7-2.7 2.6-.2.2-.3.5-.6.6-.9.3-1.5 1-2.1 1.6-.3.3-.5.6-.8.7-.8.2-1.4.8-1.9 1.4-1 1.1-2.2 1.8-3.4 2.6-1.6 1.1-3.1 2.3-4.7 3.3l-3.6 2.4c-.5.3-1 .4-1.4.7-1.3.8-2.5 1.7-3.9 2.4-1 .5-1.9 1.1-2.8 1.5-1 .5-1.9 1.2-2.9 1.6-1.6.6-3 1.4-4.6 2-2.2.8-4.1 2.1-6.3 2.9-1.1.4-2.3.5-3.2 1.4h-.1c-1.4.3-2.7.9-4.1 1.2-1.8.4-3.5 1.1-5.2 1.4-.9.2-1.8.2-2.5.8-.2.2-.5.2-.7.2-1.3-.3-2.4.5-3.6.6-1.1.1-2.2.3-3.3.6-1 .3-2 .2-3 .4-1.1.3-2.4.1-3.6.3-.5.1-1.1-.1-1.6.3-.2.1-.5.2-.7.2-2.3-.2-4.6.5-6.8-.4-.1-.1-.3-.1-.5 0-1.1.2-2.2-.1-3.3-.3-.9-.1-1.8 0-2.8-.4-.6-.2-1.3-.5-1.9-.5-2-.2-3.8-.9-5.7-1.5M281.5 44.2c.1-.5.4-1 0-1.5-.5-.6-1.1-1.2-1.8-1.5-2.1-1.1-4.2-2.2-6.5-3-.7-.2-1.4-.7-2.2-.7-.9 0-1.6-.4-2.4-.4-1.3-.1-2.5-.7-3.9-.7-1.3.1-2.7 0-4.1-.1-3.4-.2-6.7.2-10.1.6-.5.1-1.1.1-1.5.4-.2.2-.5.2-.8.1-.7-.1-1.4 0-2 .4-.2.1-.5.1-.7.1-1.4 0-2.6.6-3.9 1-.8.3-1.6.4-2.3.1-.4-.2-.7 0-1.1.1-.6.1-1 .6-1.6.7-1.2.2-2.4.7-3.5 1.2-2.4 1-4.9 1.9-7.2 3.2-2.5 1.4-5 2.4-7.4 3.9-1.7 1-3.5 2-5.2 3-1.9 1.2-3.7 2.4-5.5 3.6-1.6 1.1-3 2.3-4.6 3.4-1 .7-1.9 1.5-2.8 2.2-1.2 1-2.5 1.9-3.7 3l-5.4 5.1c-1.9 1.9-4.3 2.2-6.8 2.6h-.2c-2.5-.5-4.8-1.4-6.8-3-2.2-1.8-3.4-4.3-3.9-7.1-.2-1.2-.3-2.5.1-3.6.8-2 1.7-4 3.1-5.7.1-.1.2-.3.2-.4.2-.9.7-1.6 1.2-2.3.7-1.1.7-2.3.6-3.5 0-.3-.1-.6-.5-.6-.3 0-.5.2-.6.4-.7 1.6-1.6 3-2.3 4.6-.3.6-.9 1.2-.9 1.9 0 .9-.4 1.5-.7 2.2-.5 1.1-1.1 2.1-1.6 3.2-.7 1.7-1.9 3.1-2.1 5 0 .3-.3.6-.5.9-.9 1.5-2.2 2.7-2.5 4.5 0 .3-.2.5-.4.8-.3.7-.7 1.3-1 2-.7 1.5-1.5 2.9-2 4.5-.4 1.3-1.2 2.5-1.6 3.8-.4 1.6-.7 3 .1 4.5.1.2.1.4.1.6-.1.6 0 1.1.4 1.5.2.2.2.5.2.8 0 .3 0 .5.2.7.5.4.5.9.5 1.5 0 .4 0 .7.3 1 .2.2.3.4.3.7-.1 1.2.1 2.3.5 3.5.5 1.4 1.8 1.9 2.9.9.2-.2.4-.3.5-.5 2.2-2.3 4.4-4.4 6.3-6.9 2-2.6 5.1-4 7.1-6.7 2.2-1.6 4.1-3.6 6.1-5.3.5-.4.9-.8 1.6-.9.6 0 1.1-.4 1.5-.8 1.8-1.7 3.7-3.1 5.6-4.6 1.7-1.4 3.5-2.7 5.3-4 1.2-.8 2.3-1.6 3.5-2.4.9-.6 1.9-1.1 2.8-1.8 1.9-1.3 3.8-2.4 5.8-3.6 1.8-1.1 3.6-2 5.5-3 2.1-1.2 4.4-2.2 6.6-3.1 2-.8 3.9-2 5.9-2.7 1.2-.4 2.4-1 3.7-1.4 1.1-.4 2.2-.6 3.2-1.1.8-.4 1.7-.7 2.6-.8.9-.2 1.8-.4 2.6-.6 1.3-.5 2.7-.7 4.1-.9 1.7-.3 3.4-.7 5.2-.8 2.1-.1 4.2-.6 6.4-.6.1 0 .3 0 .4-.1.7-.5 1.5-.3 2.3-.3h3.4c.7 0 1.4-.1 2 .3.3.2.9.2 1.3.1 1.3-.1 2.5.1 3.8.3 1.4.2 2.9.5 4.3.8 1.4.5 2.9.7 4.5 1.3M173.7 25.9c-.4-.1-.6.4-1 0s-.9-.3-1.4-.3c-.8 0-1.6.1-2.4 0-3.9-.2-7.9.1-11.8-.1-2.8-.1-5.6.2-8.3 0-4.1-.2-8.1.2-12.2 0-.6 0-.7.6-1.1.6-.5.1-.6-.7-1.3-.6-1 .2-2 .2-3 0-.6-.1-.7.6-1.1.6-.5 0-.6-.7-1.1-.6-3 .3-6-.1-9.1 0-3.3.2-6.5 0-9.8.1-3.1.1-6.1-.1-9.2-.1-2.2 0-4.4.1-6.6.1-.7 0-1.3 0-1.7.7-.5-.3-.7-.9-1.3-.7-.6.2-1.2-.1-1.9 0-.6.1-1.3-.3-1.8.4-.7.8-.9-.8-1.5-.4H86c-1.3.1-2.6 0-4 0-1.5 0-3-.3-4.4.6-.6.4-1.7 1.8-1.7 2.6v15.9c0 .8-.1 1.6.4 2.4-.2.1-.3.2-.4.2-.3.1-.7.1-.6.5 0 .3.3.4.6.6.9.5 1.7.6 2.7.6 1.2-.1 2.3 0 3.5 0 .2 0 .4.1.5 0 1-.9 2.6-.9 3.4-2.1.1-.1.2-.2.3-.2.7 0 1.1-.9 1.9-.7.9.2.6-1.2 1.3-1.4.3-.1.5-.4.9-.2.3.2.4.4.4.7 0 .2-.1.5.1.7.8.8 1.2 2.2 2.4 2.4.7.1 1 .8 1.8.8 3.5-.2 7 0 10.4-.1.9 0 1.8.2 2.6-.5.1-.1.5-.1.7-.1h15.4c.9 0 1.9-.3 2.7.5.1.1.2.1.4 0 1.2-.2 2.3.2 3.2.9.2.2.4.2.6 0 .6-.3.9-.1.8.5 0 .3-.1.6.2.8.3.2.5 0 .7-.2.5-.4.8-.3.8.3 0 .4.2.7.5.9.5.4.6.9.6 1.5v8c0 .7-.2 1.5.3 2.2.1.1.1.3 0 .3-.6.8-.3 1.7-.3 2.5-.1.7-.1 1.5.7 2-.7.4-.8.9-.7 1.6.1.7-.1 1.3.5 1.8-.2.6-.6 1-.6 1.8.1 1.8 0 3.6 0 5.5v5.6c0 1.8.2 3.6 0 5.4-.1 1.3 0 2.7 0 4 0 .4 0 .7.3 1 .5.4.6.8 0 1.2-.3.3-.4.6-.4 1v7.2c0 .6-.2 1.3.4 1.8.1.1.1.3 0 .3-.9.8-.3 1.9-.5 2.8-.1.7.1 1.3.7 1.7-.6.4-.8 1-.7 1.6v24c0 .4 0 .7.3 1 .5.4.5.8 0 1.2-.4.3-.3.6-.3 1v7.5c0 .5-.2 1.1.4 1.5.2.2.1.4 0 .5-.3.3-.3.7-.3 1.1v2c-.1.5.4.8.4 1.2 0 .5-.4.8-.4 1.4v24.4c0 .3 0 .7.3.9.4.3.5.7.1 1-.3.3-.4.7-.4 1.1v8.1c0 .6.6.8.5 1.3 0 .5-.6.7-.5 1.3.1 1.6.2 3.2 0 4.8-.1 1 1 1.8.2 2.8l.1.2c.8.6.5 1.4.2 2-.2.5-.4 1-.7 1.6-1-.4-1.1-1.2-1.1-2.1v-25.7c0-.6.2-1.2-.3-1.6-.2-.2-.2-.4 0-.6.5-.5.4-1.1.4-1.6v-3.6-35.2c0-.6.2-1.3-.4-1.9-.2-.1-.1-.4.1-.6.4-.4.3-.9.3-1.4v-16.6-22.3c0-.7.2-1.4-.4-2-.1-.1-.1-.3 0-.4.5-.5.4-1.1.4-1.6v-8.2c.1-2.7-.1-5.4 0-8.1.1-5.1 0-10.2 0-15.3 0-.4.2-.9-.1-1.1-.7-.6-.5-1.3-.5-2.1 0-.9 0-.9-1-1-.3 0-.6-.1-.8-.3-.4-.4-.9-.4-1.4-.3-.5 0-1 .1-1.5.1h-22.4c-.2 0-.4-.1-.4-.4 0-.3.1-.5.4-.5.4 0 .8-.1 1.2-.1h18.5c1 0 2.1.1 3.1.1.2 0 .5.1.5-.5-.9 0-2 0-2.8-.5-.1-.1-.3 0-.5 0h-17.5c-.8 0-1.6-.2-2.3.2-.5.3-1 .4-1.5.4h-9.7c-.3 0-.7.1-.8-.1-.9-.7-2.1-.8-2.9-1.6-.3-.2-.6-.2-.7.1-.2.4-.2.8 0 1.2.1.3.5.2.8.2.3 0 .6 0 .8.2.2.3.5.4.9.3.4 0 .7.1 1 .4.2.2.4.3.7.3 1.9 0 3.8.1 5.7-.1 1.3-.1 2.6 0 3.8-.1.2 0 .4 0 .6.1.2.1.3.3.3.5s-.2.3-.3.3h-3.1c-.6 0-.9.2-1 .8-.3 1.5-1.4 2.5-1.9 3.8-.5 1.2-1.3 2.4-1.9 3.6-.8 1.7-1.6 3.4-2.4 5-1.1 2.3-2.3 4.6-3.4 6.9-1.6 3.4-3.3 6.9-5.1 10.3-1.4 2.6-2.5 5.3-3.9 8s-2.8 5.5-4.2 8.2l-2.4 4.8c-1.2 2.6-2.6 5.2-3.8 7.8-.3.7-.8 1.2-1 2-.4 1.3-1.2 2.5-1.7 3.7-.5 1.2-1.2 2.3-1.7 3.4-.9 1.9-1.8 3.8-2.7 5.6-1.5 2.9-2.9 5.8-4.4 8.7-1.6 3.1-3.1 6.3-4.7 9.4-1.7 3.4-3.4 6.7-5.1 10.1-1.8 3.6-3.5 7.3-5.4 10.8-.7 1.3-1.2 2.7-2 3.9-.3.4-.4.8-.4 1.3s-.1 1-.1 1.5c0 .8-.5 1.4-.5 2.2 0 2-.7 3.9-.7 5.9 0 .9 0 1.8-.1 2.7-.3 2.9 0 5.7.5 8.5.5 2.7 1.1 5.4 1.9 8 .2.8.6 1.6.7 2.5.3 2.2 1.6 3.9 2.7 5.6.9 1.3 2.1 2.4 3.3 3.5 1.5 1.3 2.6 3 4.5 4 .5.2 1 .4 1.4.7 1.7 1.5 3.9 2.1 5.9 3 .1.1.3.1.5.1.7-.2 1.3.2 1.9.4.3.1.6.4.9.3 1.4-.1 2.7.1 4 .5.4.1.9.2 1.4.1 1.3-.2 2.5.2 3.8.2 1.4 0 2.8.2 4.2 0 1.4-.1 2.9-.1 4.3-.2.6 0 1.3 0 1.8-.2 1.6-.5 3.2-.5 4.8-.5.2 0 .5 0 .6-.1.5-.5 1.1-.4 1.7-.4.4 0 .7-.2 1.1-.3 1.1-.2 2-.8 3.2-.9.9-.1 1.7-.7 2.7-.7.1 0 .1-.1.2-.2.2-.3.5-.3.9-.4.8-.3 1.8-.2 2.5-.7.9-.6 1.9-.6 2.8-.9 1.2-.5 2.5-1 3.7-1.6.7-.3 1.4-.8 2.2-1 .9-.2 1.6-1 2.6-1 .8-1 2.1-1.2 3.1-1.8 2.1-1.1 4-2.4 6.1-3.4.7-.3 1.4-.8 2-1.2 1.4-1.1 2.9-2 4.4-2.9 1.1-.6 1.5-1.6 2.1-2.7.1-.2 0-.4-.1-.6-.5-.9-.7-1.9-.2-2.9.1-.2.1-.4 0-.6-.1-.5-.1-1 .2-1.4.3-.4.3-.9.3-1.3v-2.4-57.7-40.3-31c0-2.4.2-4.9-.4-7.3-.1-.2-.1-.5 0-.7 1.1.3 1.1.4 1.1 1.4 0 .3-.2.7.1.9.5.5.4 1.1.4 1.7V176.3c0 9.4.1 18.8-.1 28.2 0 .6.2.8.7.4.6-.4 1.1-.5 1.7 0 .3.3.8.5 1.2.2.7-.4 1.5-.5 2.1-1.2.2-.2.3-.5.5-.5.9-.1 1.2-.8 1.8-1.3.2-.2.4-.5.5-.5.8 0 1.3-.6 1.7-1.2.5-.7 1.3-.6 1.8-1.2.7-.8 1.5-1.5 2.3-2.3.2-.2.5-.6.7-.6.8-.1 1.2-.7 1.7-1.2l1.8-1.8c.2-.2.3-.5.7-.5.6 0 .9-.5 1.3-.8 2.1-2.1 4.2-4.3 6.4-6.4.8-.8 1.3-1.8 1.7-2.8.2-.5.6-.9.6-1.6v-12.8V151c0-.6-.2-1.2.3-1.6.1-.1.1-.3 0-.4-.5-.5-.3-1.2-.3-1.8 0-7 0-14.1.1-21.1 0-4.5 0-9-.1-13.6 0-.7-.2-1.5.5-2 .3-.2.1-.5.1-.8-.3-1.2.3-2.2 1-3 .6-.8 1-1.6 1.4-2.5.2-.4.6-.6.6-1.2-.1-1 0-2-.1-3-.1-.5-.2-.9-.5-1.3-.5-.7-1.2-1.4-1.4-2.2-.4-1.4-1.6-2.5-1.7-4.1 0-.1-.2-.3-.3-.4-.2-.3-.4-.5-.2-.9.1-.2 0-.4-.1-.6-.8-.8-.6-1.9-1-2.8-.2-.6 0-1.4-.6-1.9-.1-.1-.1-.3-.1-.5.3-1.1-.3-2.1-.1-3.2 0-.2-.1-.4-.2-.6-.4-.4-.5-.9 0-1.3.2-.1.2-.4.2-.6 0-.9.1-1.9.1-2.8 0-.6.1-.9.4-1.4.3-.7.7-1.3.9-2.1.2-.9.7-1.7.6-2.7 0 0 0-.1.1-.1.7-.5.5-1.3.5-2.1v-3.5c0-.3-.1-.7.2-1 .3-.4.3-.6 0-1-.2-.2-.1-.6-.1-.8V56c0-.3-.1-.7.2-1 .5-.5.4-1.1.4-1.6 0-.4-.2-.9.1-1.2.5-.7.7-1.6 1.5-2.1.4-.3.7-.7.9-1.2.6-1.4 1.4-2.7 2.2-4 .3-.5.5-1.1.5-1.8 0-.3-.2-.7.2-.9.6-.3.5-.7.5-1.3 0-.7 0-1.4.9-1.4.2 0 .3-.1.3-.3.6-1.3 1.1-2.6 1.8-3.8.7-1.2 1.3-2.5 1.9-3.8.5-.9.7-1.8.7-2.9-.4 0-.4-1.4-.4-2.8M186 78.3c.3-.1.6.2.9 0 1.2-.7 1.4-.7 2.7 0 .4.2.8.2 1.1-.2.3-.4.2-.8-.2-1.1-.4-.3-.7-.7-1.1-1-.6-.5-.8-.5-1.3 0-.4.4-.9.8-1.4 1.2-.3.4-.7.6-.7 1.1-.9-.3-.9.7-1.4 1.1.8.1 1-.6 1.4-1.1m-30 127.2c-.6-.3-1.2-.6-2-.1.8.3 1.4.4 2 .1-.2.3-.2.5.1.7l.9.3c1 .5 1.8 1.3 2.5 2.1.2.2.4.6.8.3-1.1-1.5-2.6-2.6-4.3-3.4m8.8-36c1.4-1.3 2.4-2.8 3.5-4.2.2-.3.2-.6.3-.9 0-.5.1-1.1.2-1.6.2-.9.6-1.6 1.4-2.1 1-.5 2-.9 3.2-1.1 2.3-.4 4.4 0 6.4.9 1.1.5 2.3 1 3.1 2 .2.2.3.4.6.4.2 0 .3.2.3.3-.2.7.1 1.3-.1 2-.5 1.5-.5 3.1-.5 4.6 0 .2.1.4.3.5.3.3.4.6.4 1 0 .2 0 .4.1.5.8.9.5 2.2 1.2 3.1l.1.1c-.4 1.1.6 1.8.5 2.8 0 .3.1.6.3.9.1.2.3.4.2.6-.1 1 .4 1.8.5 2.7.2 1 .8 1.7 1 2.6.1.2.4.5.3.7-.5.9.1 1.7.3 2.5.2.9.4 1.8.2 2.8-.1.9 0 1.9 0 2.8 0 2.2-.3 4.3-.9 6.3-.6 2.1-1.5 4.1-2.6 6-1.2 2.1-2.3 4.3-3.3 6.5-.7 1.6-1.6 3-2.5 4.5-.7 1.3-1.6 2.4-2.4 3.7-.2.2-.3.5-.4.8-.6 1.4-1.6 2.6-2.3 4-.7 1.2-1.5 2.3-2.2 3.5-1.1 2.1-2.3 4.2-3.3 6.5-.7 1.6-1.4 3.3-2.4 4.7-.9 1.4-.6 2.8-.9 4.1-.1.8.3 1.7.9 2.5.6.8 1.1 1.6 1.1 2.7 0 .5-.2.9-.4 1.3-.5.7-1.1 1.2-1.8 1.5-1 .4-2 .9-3.1 1.1-1.3.3-2.5.5-3.8.3-2.5-.3-4.9-1-6.9-2.6-.9-.7-1.3-1.8-.8-3 .8-1.9 1.2-3.9 1.2-5.9 0-.4 0-.8.2-1.2.1-.4.1-.8-.1-1.2-.2-.5-.3-.9-.4-1.4-.1-.9-.4-1.1-1.3-1.1h-16.6c-.8 0-1.6-.3-2.4-.2-.4 0-.4-.3-.4-.6.1-1.4-.2-2.8-.3-4.2-.5-.1-.8.2-1.1.4-2.7 2-5.7 3.4-8.7 4.9-1.2.6-2.3 1.2-3.5 1.8-1.1.5-2.2 1.1-3.4 1.4-1.1.2-2 .8-3.1 1.1-1.3.4-2.4 1.2-3.8 1.3-.5 0-1.1.1-1.5.5-.1.2-.4.2-.6.2-1.1.1-2 .5-3 .8-.4.1-.7.2-1.1.2-.3 0-.6-.1-.8.1-.5.4-1 .6-1.7.5-.2 0-.3 0-.3.3 0 .1.1.2.2.2.7 0 1.3.7 2.1.5.4-.1.8.4 1.1.7.2.3.4.4.7.2.2-.1.4-.2.5 0 .1.2.1.4 0 .6-.1.1-.2.3-.3.4-1.3.8-2.6 1.6-4.1 2-5.5 1.4-11.1 2.1-16.8 2.1-3.1 0-6.2.1-9.3-.3-2.5-.3-4.9-.7-7.3-1.3-1-.3-2.3-.4-3-1.5-.1-.2-.3-.2-.4-.2-.9-.5-1.1-1.4-.5-2.1.2-.3.5-.5.8-.2.2.2.4.3.5.1.4-.5.9-.7 1.4-.9.1 0 .2-.2.2-.4s-.2-.4-.4-.4c-.9.2-1.6-.3-2.3-.7-.7-.4-1.5-.5-2.2-.9-1.8-.9-3.7-1.6-5.2-3.1-1-.2-1.5-1.3-2.5-1.5-.3-.1-.6-.7-.9-.8-1.3-.2-1.8-1.4-2.7-2.1-.9-.8-1.8-1.7-2.4-2.7-.8-1.3-2.1-2.3-2.7-3.7-.5-1.1-1.4-1.8-1.9-2.9-.4-1-1.3-1.8-1.6-2.9-.5-1.6-1.4-2.9-1.9-4.5-.2-.9-.7-1.8-1.1-2.7-.1-.2-.4-.5-.6-.6-.3-.3-.7-.2-.8.2-.2.6-.7.9-.9 1.5-.1.3-.4.5-.7.3-.4-.2-.8-.3-1.2-.4-.2 0-.4-.2-.4-.3-.2-.9-1-1.4-1.2-2.2-.8-2.7-1.4-5.4-2-8.1l-1.2-6.3c-.3-1.7-.4-3.4-.6-5.2-.3-2.5-.6-4.9-.6-7.4 0-1-.1-2.1-.1-3.1-.1-14.6-.1-29.2-.1-43.8 0-.8.2-1.5.5-2.3 1.2-2.8 2.5-5.5 3.7-8.3.5-1.2 1.4-1.8 2.2-2.6.5-.4 1.4-.2 1.9.4.2.2.3.5.4.7.2.3.5.4.8.5.5.1.4-.4.6-.6 1-1.1 1.7-2.4 2.4-3.7.8-1.4 1.6-3 2.4-4.4.8-1.4 1.5-3 2.1-4.5.4-1.1 1.4-1.9 1.6-3.2.2-1.2 1.3-2.2 1.5-3.5.1-.5.6-.9.8-1.4 1-2.2 2.2-4.2 3.1-6.4.5-1.1 1.3-2.1 1.4-3.4 0-.5.5-.6.7-1 .3-.8.9-1.6 1.1-2.5.2-.6.9-1 1-1.7.2-.9.8-1.6 1.1-2.4.7-1.8 1.8-3.4 2.4-5.1.3-.8.7-1.5 1.1-2.2.6-1 .9-2.2 1.6-3.1.8-1.2 1.2-2.5 1.8-3.7 1-1.8 2-3.7 2.7-5.7.4-1.2 1.2-2.2 1.8-3.4 1.2-2.3 2.2-4.8 3.4-7.2.8-1.5 1.6-3.1 2.3-4.6.6-1.2 1-2.4 1.8-3.4.2-.3.1-.5-.3-.6h-.2c-1.3-.1-1.3-.1-1.2-1.3 0-1.5-.3-3 .2-4.4.3-1 0-2 .4-2.9-.3-1.9 0-3.8 0-5.7-.1-3.6-.1-7.1 0-10.7 0-1.1.3-2.3 1.3-3 .3-.2.5-.5.8-.8.3-.4.6-.7 1.1-.6h.4c.9-.9 2-.5 3.1-.5h92.9c2.7 0 5.5.2 8.1-.5.9-.2 1.8-.1 2.7.2.6.2 1.2.3 1.8.3 10.6 0 21.2 0 31.8-.1 1.2 0 2.3.5 3.4.6.5.1.9.7 1.3 1.1.1.2.1.4-.1.6-.2.2-.4.2-.6.1-.6-.9-1.7-.4-2.4-1-.7-.5-1.8-.1-2.7-.1h-28.6c.3.7.8 1 1.5 1H217.5c.7 0 1.2.4 1.6.8.4.4.7.6 1.1.2.3-.3.7-.3 1-.3.7-.1.8-.2.6-1-.1-.4-.1-.7.3-.8.4-.1.7.1.8.5.2 1.2.4 2.5.4 3.7.1 1.9 0 3.8 0 5.7 0 .5.3.8.8.5 1.6-1 3.4-1.5 5.2-2.2 1.9-.8 3.9-1.4 5.9-2.1.8-.3 1.7-.6 2.5-.9.3-.1.7-.2 1-.2.6.2 1.1.2 1.6-.3.2-.1.4-.1.6 0 .2 0 .5.1.6 0 1.2-.9 2.6-.4 4-.6.1 0 .3 0 .4-.1.6-.7 1.4-.6 2.2-.5.4 0 .8-.1 1.1-.3.6-.3 1.2-.5 1.9-.3.4.1.8-.1 1.2-.3.4-.2.7-.4 1.2-.4h9c.7 0 1.5.2 2.2 0h.4c1 .6 2.1.4 3.1.5.3 0 .6 0 .9.1.6.3 1.3.6 2 .4.2-.1.4.1.6.2 1.2.6 2.5.9 3.9 1.2 1.9.4 3.8 1 5.5 1.9.5.3 1 .3 1.5.5.9.3 1.7.8 2.5 1.3 1.1.7 2.1 1.5 3.3 1.9 1.1.3 1.6 1.3 2.5 1.8.9.5 1.7 1.2 2.2 2.1.9 1.4 2.2 2.3 3.3 3.5.4.4.7 1 1 1.6 1 1.9 2.5 3.4 3.3 5.3.2.6.8 1 1 1.6.6 1.7 1.5 3.2 2.1 4.8.7 1.9 1.3 3.7 2.1 5.6.5 1.3 1.2 2.5 1.7 3.7.7 1.7 1.2 3.4 1.8 5.1.7 1.9 1.1 3.9 1.6 5.9.5 1.9 1 3.8 1.1 5.8.2 2.5.6 5 .6 7.5 0 2.4.1 4.8.4 7.2.2 1 .1 2 0 3-.2 2.1-.1 4.2-.7 6.3-.1.2-.1.4 0 .6.3 1.5.4 3.1.8 4.6.2.8.7 1.4.8 2.2.1.7.2 1.5.5 2.2.2.5 0 1.3.1 1.9.3 1.1.1 2.2.3 3.3.1.7-.2 1.4-.3 2.2-.2 1.6-.2 3.3-.7 4.9-.4 1.4-.9 2.7-1.6 3.9-.2.3-.3.7-.4 1-1.4 2.6-2.6 5.4-4 8-.7 1.3-1.5 2.4-2.1 3.7-.7 1.5-1.8 2.7-2.4 4.3-.3.7-1 1.1-1.2 1.9-.6 1.7-1.8 3-2.6 4.6-.8 1.6-2.2 3-2.7 4.8-.1.2-.2.4-.4.6-.4.5-1 .9-.7 1.7 0 .1-.1.2-.2.3-1.4 2.2-2.3 4.5-3.4 6.8-.6 1.3-1.2 2.7-2 3.9-.6 1-.8 2.2-1.4 3.2-1 1.8-1.8 3.7-2.8 5.5-.6 1.2-1.2 2.5-2 3.7-1 1.3-1.6 2.9-2.7 4.1 0 .9-1 1.3-.9 2.3.1.5-.5 1.1-.8 1.7-.8 1.8-1.9 3.5-2.6 5.4-.4 1-1.1 2-1.6 3-.4 1.1-1.2 2-1.3 3.2-1.1 1.4-1.5 3.1-2.4 4.5-.7 1.1-1.1 2.4-1.7 3.6-.9 1.9-1.8 3.7-2.8 5.6-.1.1-.3.3-.3.4.1 1.5-1.1 2.4-1.6 3.7-.4 1.3-1.2 2.4-1.9 3.6-.2.3-.4.6-.5 1-.2 1-.8 1.8-1.2 2.7-.4.9-.9 1.8-1.2 2.6-.7 1.6-1.5 3.1-2.2 4.7-.9 2.1-2.2 3.9-3 6.1-.4 1.4-.8 2.6.1 3.9.7 1 1.1 2.1.9 3.4-.1.7-.3 1.2-.9 1.5-1.1.7-2.3 1.5-3.5 1.8-2 .5-4 .8-6.1.4-1.2-.2-2.3-.7-3.4-1.1-1.1-.4-1.8-1.3-2.7-1.9-.5-.3-.5-1-.4-1.6.1-.6.3-1.3.6-1.9.5-1 .8-2 .7-3.1-.1-.8.2-1.5.3-2.2.2-.9.2-1.9-.2-2.9-.6-1.5-1.4-3-1.3-4.7-.9-1.7-.6-3.6-.4-5.4.2-1.7 0-3.4.8-5-.4-1.2.6-2.1.8-3.1.1-.7.5-1.2 1-1.8.6-.6 1-1.5 1.4-2.3.7-1.4 1.2-2.8 1.9-4.1.4-.8 1.1-1.4 1.4-2.3.1-.4.4-.7.4-1.1v-.4c.8-.5.6-1.6 1.3-2.1.7-.6.2-1.6.9-2-.1-.9.7-1.4 1-2.1.8-1.7 1.8-3.4 2.6-5.1l2.7-5.4 2.7-5.4c.7-1.5 1.5-2.9 2.3-4.3.7-1.4 1.5-2.8 1.8-4.4v-.1c1-.7 1-1.9 1.6-2.8.3-.6.8-1 .8-1.8 0-.5.7-.6.8-1.2.3-.7.4-1.5.9-2.2.6-.8.9-1.8 1.3-2.8.4-.8.8-1.7 1.2-2.5.7-1.1 1.2-2.3 1.7-3.4.6-1.2 1.1-2.4 1.7-3.7.8-1.6 1.7-3.1 2.3-4.7.4-.9 1.1-1.7 1.5-2.7.7-1.6 1.5-3.1 2.3-4.6 1.2-2.4 2.5-4.8 3.7-7.3.5-1 .9-2.2 1.4-3.2 1-1.8 1.7-3.7 2.8-5.5.1-.1.1-.2.1-.3.4-1.7 1.4-3.1 2.3-4.6.6-1 1.2-2 1.7-3.1.2-.4.4-.6.6-.9.3-.3.6-.6.7-1.1.1-.7.6-1.2 1-1.7 1.4-2.1 2.3-4.4 3.4-6.6.7-1.4 1.6-2.7 2.1-4.2.1-.4.2-.7.2-1.1 0-1.2.1-2.5.2-3.7v-.4c.6-1.6.3-3.3.6-4.9.3-1.7.3-3.5.6-5.2v-.2c-.1-4.1 0-8.2-1.3-12.1-.3-.9-.4-1.9-.6-2.9-.4-1.6-.9-3.3-1.4-4.9-.8-2.2-1.4-4.5-3-6.5-.8-1-1.6-1.8-2.4-2.7-1.1-1.2-2.4-2.1-3.6-2.9-1.6-1.1-3.2-2.2-5.1-2.9-1.1-.4-2-1-3.2-1.3-1.3-.3-2.5-1.2-4-1h-.6c-1.9-.6-3.8-.4-5.8-.6-.3 0-.6-.2-1-.3-.9-.2-1.8-.3-2.7-.2-2.1.2-4.1.1-6.2.2-1.3.1-2.6.3-3.9.4-.8.1-1.6.1-2.4.1-.9.1-1.8.2-2.7.4-.6.2-1.2.6-1.9.2-.2-.1-.5 0-.5.2-.2.5-.5.7-1 .4-.2-.1-.5 0-.7.1-.5.4-1 .5-1.6.4-.3 0-.6 0-.8.3-.2.2-.4.4-.8.3-.1 0-.2-.1-.2 0-1.4.9-3.1.5-4.5 1.4-1-.3-1.5 1.1-2.6.8h-.1c-.4.8-1.4.6-2 1.1-.6.5-1.4.8-2.1 1-.9.2-1.4 1.1-2.3 1-.9.9-2.3.7-3.2 1.8-.6.7-1.6.8-2.4 1.2-1.3.7-2.6 1.5-4 2-.4.1-.6.7-.9.8-1.1.2-1.6 1.2-2.4 1.7-.8.5-1.6 1.2-2.4 1.6-.7.3-1.2 1.1-2.1 1.1-.2 0-.3.3-.5.5-.3.4-.7.8-1.3 1-.2 0-.4.1-.5.3-.8 1.1-2.3 1.3-3.1 2.5-.3.4-.8.3-1.2.6-.9.8-1.6 1.7-2.6 2.4-.4.3-.7.5-1.1.5-.6 0-1 .2-1.4.6-.3.4-.6.7-1.1.8-.4.1-.7.4-1 .7-2.4 2.8-5.3 5.2-7.9 7.9-1.4 1.5-3.2 2.7-4.3 4.6-.3.5-.9.9-1.4 1.2-1.1.8-1.9 1.9-2.8 2.8l-4.3 4.3c-1.7 1.7-3.3 3.3-4.9 5-.5.5-.8 1.1-.8 1.9-.2 2.4-1.2 3.6-3.7 4h-.1c-.6.2-1.4-.1-1.8.4-.3.5-.1 1.2-.1 1.8-.3 11.2-.2 22.4-.3 33.6 0 6.6.3 13.1.3 19.6-.4 1-.4 1.1-.4 1.5" fill="#fff"/></svg>