<?xml version="1.0" encoding="utf-8"?>
<!-- Generator: Adobe Illustrator 17.0.0, SVG Export Plug-In . SVG Version: 6.00 Build 0)  -->
<!DOCTYPE svg PUBLIC "-//W3C//DTD SVG 1.1//EN" "http://www.w3.org/Graphics/SVG/1.1/DTD/svg11.dtd">
<svg version="1.1" id="Слой_1" xmlns="http://www.w3.org/2000/svg" xmlns:xlink="http://www.w3.org/1999/xlink" x="0px" y="0px"
	 width="1200px" height="1200px" viewBox="0 0 1200 1200" enable-background="new 0 0 1200 1200" xml:space="preserve">
<g>
	<polygon fill="#FFFFFF" points="157.142,85.715 157.142,114.283 128.571,114.283 128.571,142.854 100,142.854 100,171.428 
		100,199.999 128.571,199.999 128.571,171.428 157.142,171.428 157.142,142.854 185.713,142.854 185.713,171.428 214.284,171.428 
		214.284,199.999 242.858,199.999 242.858,171.428 242.858,142.854 214.284,142.854 214.284,114.283 185.713,114.283 
		185.713,85.715 	"/>
	<polygon fill="#FFFFFF" points="157.142,199.999 157.142,228.57 128.571,228.57 128.571,257.141 100,257.141 100,285.715 
		100,314.286 128.571,314.286 128.571,285.715 157.142,285.715 157.142,257.141 185.713,257.141 185.713,285.715 214.284,285.715 
		214.284,314.286 242.858,314.286 242.858,285.715 242.858,257.141 214.284,257.141 214.284,228.57 185.713,228.57 185.713,199.999 
			"/>
	<polygon fill="#FFFFFF" points="157.142,314.286 157.142,342.857 128.571,342.857 128.571,371.428 100,371.428 100,399.999 
		100,428.57 128.571,428.57 128.571,399.999 157.142,399.999 157.142,371.428 185.713,371.428 185.713,399.999 214.284,399.999 
		214.284,428.57 242.858,428.57 242.858,399.999 242.858,371.428 214.284,371.428 214.284,342.857 185.713,342.857 185.713,314.286 
			"/>
	<polygon fill="#FFFFFF" points="157.142,428.57 157.142,457.141 128.571,457.141 128.571,485.712 100,485.712 100,514.286 
		100,542.857 128.571,542.857 128.571,514.286 157.142,514.286 157.142,485.712 185.713,485.712 185.713,514.286 214.284,514.286 
		214.284,542.857 242.858,542.857 242.858,514.286 242.858,485.712 214.284,485.712 214.284,457.141 185.713,457.141 
		185.713,428.57 	"/>
	<polygon fill="#FFFFFF" points="157.142,542.856 157.142,571.427 128.571,571.427 128.571,599.998 100,599.998 100,628.573 
		100,657.144 128.571,657.144 128.571,628.573 157.142,628.573 157.142,599.998 185.713,599.998 185.713,628.573 214.284,628.573 
		214.284,657.144 242.858,657.144 242.858,628.573 242.858,599.998 214.284,599.998 214.284,571.427 185.713,571.427 
		185.713,542.856 	"/>
	<polygon fill="#FFFFFF" points="157.142,657.143 157.142,685.711 128.571,685.711 128.571,714.282 100,714.282 100,742.856 
		100,771.427 128.571,771.427 128.571,742.856 157.142,742.856 157.142,714.282 185.713,714.282 185.713,742.856 214.284,742.856 
		214.284,771.427 242.858,771.427 242.858,742.856 242.858,714.282 214.284,714.282 214.284,685.711 185.713,685.711 
		185.713,657.143 	"/>
	<polygon fill="#FFFFFF" points="157.142,771.427 157.142,799.998 128.571,799.998 128.571,828.569 100,828.569 100,857.143 
		100,885.714 128.571,885.714 128.571,857.143 157.142,857.143 157.142,828.569 185.713,828.569 185.713,857.143 214.284,857.143 
		214.284,885.714 242.858,885.714 242.858,857.143 242.858,828.569 214.284,828.569 214.284,799.998 185.713,799.998 
		185.713,771.427 	"/>
	<polygon fill="#FFFFFF" points="157.142,885.714 157.142,914.285 128.571,914.285 128.571,942.856 100,942.856 100,971.43 
		100,999.998 128.571,999.998 128.571,971.43 157.142,971.43 157.142,942.856 185.713,942.856 185.713,971.43 214.284,971.43 
		214.284,999.998 242.858,999.998 242.858,971.43 242.858,942.856 214.284,942.856 214.284,914.285 185.713,914.285 
		185.713,885.714 	"/>
	<polygon fill="#FFFFFF" points="157.142,999.997 157.142,1028.568 128.571,1028.568 128.571,1057.139 100,1057.139 100,1085.714 
		100,1114.285 128.571,1114.285 128.571,1085.714 157.142,1085.714 157.142,1057.139 185.713,1057.139 185.713,1085.714 
		214.284,1085.714 214.284,1114.285 242.858,1114.285 242.858,1085.714 242.858,1057.139 214.284,1057.139 214.284,1028.568 
		185.713,1028.568 185.713,999.997 	"/>
	<polygon fill="#FFFFFF" points="357.141,999.997 357.141,1028.568 328.57,1028.568 328.57,1057.139 299.999,1057.139 
		299.999,1028.568 271.424,1028.568 271.424,999.997 242.857,999.997 242.857,1028.568 242.857,1057.139 271.424,1057.139 
		271.424,1085.714 299.999,1085.714 299.999,1114.285 328.57,1114.285 328.57,1085.714 357.141,1085.714 357.141,1057.139 
		385.712,1057.139 385.712,1028.568 385.712,999.997 	"/>
	<polygon fill="#FFFFFF" points="357.141,885.713 357.141,914.284 328.57,914.284 328.57,942.855 299.999,942.855 299.999,914.284 
		271.428,914.284 271.428,885.713 242.857,885.713 242.857,914.284 242.857,942.855 271.428,942.855 271.428,971.426 
		299.999,971.426 299.999,999.997 328.57,999.997 328.57,971.426 357.141,971.426 357.141,942.855 385.712,942.855 385.712,914.284 
		385.712,885.713 	"/>
	<polygon fill="#FFFFFF" points="357.141,771.427 357.141,799.998 328.57,799.998 328.57,828.57 299.999,828.57 299.999,799.998 
		271.428,799.998 271.428,771.427 242.857,771.427 242.857,799.998 242.857,828.57 271.428,828.57 271.428,857.141 299.999,857.141 
		299.999,885.712 328.57,885.712 328.57,857.141 357.141,857.141 357.141,828.57 385.712,828.57 385.712,799.998 385.712,771.427 	
		"/>
	<polygon fill="#FFFFFF" points="357.141,657.142 357.141,685.713 328.57,685.713 328.57,714.284 299.999,714.284 299.999,685.713 
		271.428,685.713 271.428,657.142 242.857,657.142 242.857,685.713 242.857,714.284 271.428,714.284 271.428,742.855 
		299.999,742.855 299.999,771.426 328.57,771.426 328.57,742.855 357.141,742.855 357.141,714.284 385.712,714.284 385.712,685.713 
		385.712,657.142 	"/>
	<polygon fill="#FFFFFF" points="357.141,542.856 357.141,571.427 328.57,571.427 328.57,599.998 299.999,599.998 299.999,571.427 
		271.428,571.427 271.428,542.856 242.857,542.856 242.857,571.427 242.857,599.998 271.428,599.998 271.428,628.569 
		299.999,628.569 299.999,657.14 328.57,657.14 328.57,628.569 357.141,628.569 357.141,599.998 385.712,599.998 385.712,571.427 
		385.712,542.856 	"/>
	<polygon fill="#FFFFFF" points="357.141,428.571 357.141,457.142 328.57,457.142 328.57,485.713 299.999,485.713 299.999,457.142 
		271.428,457.142 271.428,428.571 242.857,428.571 242.857,457.142 242.857,485.713 271.428,485.713 271.428,514.284 
		299.999,514.284 299.999,542.855 328.57,542.855 328.57,514.284 357.141,514.284 357.141,485.713 385.712,485.713 385.712,457.142 
		385.712,428.571 	"/>
	<polygon fill="#FFFFFF" points="357.141,314.285 357.141,342.856 328.57,342.856 328.57,371.427 299.999,371.427 299.999,342.856 
		271.428,342.856 271.428,314.285 242.857,314.285 242.857,342.856 242.857,371.427 271.428,371.427 271.428,399.998 
		299.999,399.998 299.999,428.569 328.57,428.569 328.57,399.998 357.141,399.998 357.141,371.427 385.712,371.427 385.712,342.856 
		385.712,314.285 	"/>
	<polygon fill="#FFFFFF" points="357.141,200 357.141,228.571 328.57,228.571 328.57,257.142 299.999,257.142 299.999,228.571 
		271.428,228.571 271.428,200 242.857,200 242.857,228.571 242.857,257.142 271.428,257.142 271.428,285.713 299.999,285.713 
		299.999,314.284 328.57,314.284 328.57,285.713 357.141,285.713 357.141,257.142 385.712,257.142 385.712,228.571 385.712,200 	"/>
	<polygon fill="#FFFFFF" points="357.141,85.715 357.141,114.283 328.57,114.283 328.57,142.854 299.999,142.854 299.999,114.283 
		271.424,114.283 271.424,85.715 242.857,85.715 242.857,114.283 242.857,142.854 271.424,142.854 271.424,171.428 299.999,171.428 
		299.999,199.999 328.57,199.999 328.57,171.428 357.141,171.428 357.141,142.854 385.712,142.854 385.712,114.283 385.712,85.715 	
		"/>
	<polygon fill="#FFFFFF" points="442.856,85.715 442.856,114.283 414.285,114.283 414.285,142.854 385.714,142.854 385.714,171.428 
		385.714,199.999 414.285,199.999 414.285,171.428 442.856,171.428 442.856,142.854 471.427,142.854 471.427,171.428 
		499.998,171.428 499.998,199.999 528.572,199.999 528.572,171.428 528.572,142.854 499.998,142.854 499.998,114.283 
		471.427,114.283 471.427,85.715 	"/>
	<polygon fill="#FFFFFF" points="414.284,314.285 414.284,285.714 442.855,285.714 442.855,257.143 471.426,257.143 
		471.426,285.714 499.997,285.714 499.997,314.285 528.568,314.285 528.568,285.714 528.568,257.143 499.997,257.143 
		499.997,228.572 471.426,228.572 471.426,200.001 442.855,200.001 442.855,228.572 414.284,228.572 414.284,257.143 
		385.713,257.143 385.713,285.714 385.713,314.285 	"/>
	<polygon fill="#FFFFFF" points="414.284,428.571 414.284,400 442.855,400 442.855,371.428 471.426,371.428 471.426,400 
		499.997,400 499.997,428.571 528.568,428.571 528.568,400 528.568,371.428 499.997,371.428 499.997,342.858 471.426,342.858 
		471.426,314.286 442.855,314.286 442.855,342.858 414.284,342.858 414.284,371.428 385.713,371.428 385.713,400 385.713,428.571 	
		"/>
	<polygon fill="#FFFFFF" points="414.284,542.856 414.284,514.285 442.855,514.285 442.855,485.714 471.426,485.714 
		471.426,514.285 499.997,514.285 499.997,542.856 528.568,542.856 528.568,514.285 528.568,485.714 499.997,485.714 
		499.997,457.143 471.426,457.143 471.426,428.572 442.855,428.572 442.855,457.143 414.284,457.143 414.284,485.714 
		385.713,485.714 385.713,514.285 385.713,542.856 	"/>
	<polygon fill="#FFFFFF" points="414.284,657.142 414.284,628.571 442.855,628.571 442.855,600 471.426,600 471.426,628.571 
		499.997,628.571 499.997,657.142 528.568,657.142 528.568,628.571 528.568,600 499.997,600 499.997,571.429 471.426,571.429 
		471.426,542.858 442.855,542.858 442.855,571.429 414.284,571.429 414.284,600 385.713,600 385.713,628.571 385.713,657.142 	"/>
	<polygon fill="#FFFFFF" points="414.284,771.427 414.284,742.856 442.855,742.856 442.855,714.285 471.426,714.285 
		471.426,742.856 499.997,742.856 499.997,771.427 528.568,771.427 528.568,742.856 528.568,714.285 499.997,714.285 
		499.997,685.714 471.426,685.714 471.426,657.143 442.855,657.143 442.855,685.714 414.284,685.714 414.284,714.285 
		385.713,714.285 385.713,742.856 385.713,771.427 	"/>
	<polygon fill="#FFFFFF" points="414.284,885.713 414.284,857.142 442.855,857.142 442.855,828.571 471.426,828.571 
		471.426,857.142 499.997,857.142 499.997,885.713 528.568,885.713 528.568,857.142 528.568,828.571 499.997,828.571 499.997,800 
		471.426,800 471.426,771.429 442.855,771.429 442.855,800 414.284,800 414.284,828.571 385.713,828.571 385.713,857.142 
		385.713,885.713 	"/>
	<polygon fill="#FFFFFF" points="414.284,999.998 414.284,971.427 442.855,971.427 442.855,942.856 471.426,942.856 
		471.426,971.427 499.997,971.427 499.997,999.998 528.568,999.998 528.568,971.427 528.568,942.856 499.997,942.856 
		499.997,914.285 471.426,914.285 471.426,885.714 442.855,885.714 442.855,914.285 414.284,914.285 414.284,942.856 
		385.713,942.856 385.713,971.427 385.713,999.998 	"/>
	<polygon fill="#FFFFFF" points="442.856,999.997 442.856,1028.568 414.285,1028.568 414.285,1057.139 385.714,1057.139 
		385.714,1085.714 385.714,1114.285 414.285,1114.285 414.285,1085.714 442.856,1085.714 442.856,1057.139 471.427,1057.139 
		471.427,1085.714 499.998,1085.714 499.998,1114.285 528.572,1114.285 528.572,1085.714 528.572,1057.139 499.998,1057.139 
		499.998,1028.568 471.427,1028.568 471.427,999.997 	"/>
	<polygon fill="#FFFFFF" points="642.855,999.997 642.855,1028.568 614.284,1028.568 614.284,1057.139 585.713,1057.139 
		585.713,1028.568 557.138,1028.568 557.138,999.997 528.571,999.997 528.571,1028.568 528.571,1057.139 557.138,1057.139 
		557.138,1085.714 585.713,1085.714 585.713,1114.285 614.284,1114.285 614.284,1085.714 642.855,1085.714 642.855,1057.139 
		671.426,1057.139 671.426,1028.568 671.426,999.997 	"/>
	<polygon fill="#FFFFFF" points="642.855,885.713 642.855,914.284 614.284,914.284 614.284,942.855 585.713,942.855 
		585.713,914.284 557.142,914.284 557.142,885.713 528.571,885.713 528.571,914.284 528.571,942.855 557.142,942.855 
		557.142,971.426 585.713,971.426 585.713,999.997 614.284,999.997 614.284,971.426 642.855,971.426 642.855,942.855 
		671.426,942.855 671.426,914.284 671.426,885.713 	"/>
	<polygon fill="#FFFFFF" points="642.855,771.427 642.855,799.998 614.284,799.998 614.284,828.57 585.713,828.57 585.713,799.998 
		557.142,799.998 557.142,771.427 528.571,771.427 528.571,799.998 528.571,828.57 557.142,828.57 557.142,857.141 585.713,857.141 
		585.713,885.712 614.284,885.712 614.284,857.141 642.855,857.141 642.855,828.57 671.426,828.57 671.426,799.998 671.426,771.427 
			"/>
	<polygon fill="#FFFFFF" points="642.855,657.142 642.855,685.713 614.284,685.713 614.284,714.284 585.713,714.284 
		585.713,685.713 557.142,685.713 557.142,657.142 528.571,657.142 528.571,685.713 528.571,714.284 557.142,714.284 
		557.142,742.855 585.713,742.855 585.713,771.426 614.284,771.426 614.284,742.855 642.855,742.855 642.855,714.284 
		671.426,714.284 671.426,685.713 671.426,657.142 	"/>
	<polygon fill="#FFFFFF" points="642.855,542.856 642.855,571.427 614.284,571.427 614.284,599.998 585.713,599.998 
		585.713,571.427 557.142,571.427 557.142,542.856 528.571,542.856 528.571,571.427 528.571,599.998 557.142,599.998 
		557.142,628.569 585.713,628.569 585.713,657.14 614.284,657.14 614.284,628.569 642.855,628.569 642.855,599.998 671.426,599.998 
		671.426,571.427 671.426,542.856 	"/>
	<polygon fill="#FFFFFF" points="642.855,428.571 642.855,457.142 614.284,457.142 614.284,485.713 585.713,485.713 
		585.713,457.142 557.142,457.142 557.142,428.571 528.571,428.571 528.571,457.142 528.571,485.713 557.142,485.713 
		557.142,514.284 585.713,514.284 585.713,542.855 614.284,542.855 614.284,514.284 642.855,514.284 642.855,485.713 
		671.426,485.713 671.426,457.142 671.426,428.571 	"/>
	<polygon fill="#FFFFFF" points="642.855,314.285 642.855,342.856 614.284,342.856 614.284,371.427 585.713,371.427 
		585.713,342.856 557.142,342.856 557.142,314.285 528.571,314.285 528.571,342.856 528.571,371.427 557.142,371.427 
		557.142,399.998 585.713,399.998 585.713,428.569 614.284,428.569 614.284,399.998 642.855,399.998 642.855,371.427 
		671.426,371.427 671.426,342.856 671.426,314.285 	"/>
	<polygon fill="#FFFFFF" points="642.855,200 642.855,228.571 614.284,228.571 614.284,257.142 585.713,257.142 585.713,228.571 
		557.142,228.571 557.142,200 528.571,200 528.571,228.571 528.571,257.142 557.142,257.142 557.142,285.713 585.713,285.713 
		585.713,314.284 614.284,314.284 614.284,285.713 642.855,285.713 642.855,257.142 671.426,257.142 671.426,228.571 671.426,200 	
		"/>
	<polygon fill="#FFFFFF" points="642.855,85.715 642.855,114.283 614.284,114.283 614.284,142.854 585.713,142.854 585.713,114.283 
		557.138,114.283 557.138,85.715 528.571,85.715 528.571,114.283 528.571,142.854 557.138,142.854 557.138,171.428 585.713,171.428 
		585.713,199.999 614.284,199.999 614.284,171.428 642.855,171.428 642.855,142.854 671.426,142.854 671.426,114.283 
		671.426,85.715 	"/>
	<polygon fill="#FFFFFF" points="728.57,85.715 728.57,114.283 699.999,114.283 699.999,142.854 671.428,142.854 671.428,171.428 
		671.428,199.999 699.999,199.999 699.999,171.428 728.57,171.428 728.57,142.854 757.141,142.854 757.141,171.428 785.712,171.428 
		785.712,199.999 814.286,199.999 814.286,171.428 814.286,142.854 785.712,142.854 785.712,114.283 757.141,114.283 
		757.141,85.715 	"/>
	<polygon fill="#FFFFFF" points="699.998,314.285 699.998,285.714 728.569,285.714 728.569,257.143 757.14,257.143 757.14,285.714 
		785.711,285.714 785.711,314.285 814.282,314.285 814.282,285.714 814.282,257.143 785.711,257.143 785.711,228.572 
		757.14,228.572 757.14,200.001 728.569,200.001 728.569,228.572 699.998,228.572 699.998,257.143 671.427,257.143 671.427,285.714 
		671.427,314.285 	"/>
	<polygon fill="#FFFFFF" points="699.998,428.571 699.998,400 728.569,400 728.569,371.428 757.14,371.428 757.14,400 785.711,400 
		785.711,428.571 814.282,428.571 814.282,400 814.282,371.428 785.711,371.428 785.711,342.858 757.14,342.858 757.14,314.286 
		728.569,314.286 728.569,342.858 699.998,342.858 699.998,371.428 671.427,371.428 671.427,400 671.427,428.571 	"/>
	<polygon fill="#FFFFFF" points="699.998,542.856 699.998,514.285 728.569,514.285 728.569,485.714 757.14,485.714 757.14,514.285 
		785.711,514.285 785.711,542.856 814.282,542.856 814.282,514.285 814.282,485.714 785.711,485.714 785.711,457.143 
		757.14,457.143 757.14,428.572 728.569,428.572 728.569,457.143 699.998,457.143 699.998,485.714 671.427,485.714 671.427,514.285 
		671.427,542.856 	"/>
	<polygon fill="#FFFFFF" points="699.998,657.142 699.998,628.571 728.569,628.571 728.569,600 757.14,600 757.14,628.571 
		785.711,628.571 785.711,657.142 814.282,657.142 814.282,628.571 814.282,600 785.711,600 785.711,571.429 757.14,571.429 
		757.14,542.858 728.569,542.858 728.569,571.429 699.998,571.429 699.998,600 671.427,600 671.427,628.571 671.427,657.142 	"/>
	<polygon fill="#FFFFFF" points="699.998,771.427 699.998,742.856 728.569,742.856 728.569,714.285 757.14,714.285 757.14,742.856 
		785.711,742.856 785.711,771.427 814.282,771.427 814.282,742.856 814.282,714.285 785.711,714.285 785.711,685.714 
		757.14,685.714 757.14,657.143 728.569,657.143 728.569,685.714 699.998,685.714 699.998,714.285 671.427,714.285 671.427,742.856 
		671.427,771.427 	"/>
	<polygon fill="#FFFFFF" points="699.998,885.713 699.998,857.142 728.569,857.142 728.569,828.571 757.14,828.571 757.14,857.142 
		785.711,857.142 785.711,885.713 814.282,885.713 814.282,857.142 814.282,828.571 785.711,828.571 785.711,800 757.14,800 
		757.14,771.429 728.569,771.429 728.569,800 699.998,800 699.998,828.571 671.427,828.571 671.427,857.142 671.427,885.713 	"/>
	<polygon fill="#FFFFFF" points="699.998,999.998 699.998,971.427 728.569,971.427 728.569,942.856 757.14,942.856 757.14,971.427 
		785.711,971.427 785.711,999.998 814.282,999.998 814.282,971.427 814.282,942.856 785.711,942.856 785.711,914.285 
		757.14,914.285 757.14,885.714 728.569,885.714 728.569,914.285 699.998,914.285 699.998,942.856 671.427,942.856 671.427,971.427 
		671.427,999.998 	"/>
	<polygon fill="#FFFFFF" points="728.57,999.997 728.57,1028.568 699.999,1028.568 699.999,1057.139 671.428,1057.139 
		671.428,1085.714 671.428,1114.285 699.999,1114.285 699.999,1085.714 728.57,1085.714 728.57,1057.139 757.141,1057.139 
		757.141,1085.714 785.712,1085.714 785.712,1114.285 814.286,1114.285 814.286,1085.714 814.286,1057.139 785.712,1057.139 
		785.712,1028.568 757.141,1028.568 757.141,999.997 	"/>
	<polygon fill="#FFFFFF" points="928.569,999.997 928.569,1028.568 899.998,1028.568 899.998,1057.139 871.427,1057.139 
		871.427,1028.568 842.852,1028.568 842.852,999.997 814.285,999.997 814.285,1028.568 814.285,1057.139 842.852,1057.139 
		842.852,1085.714 871.427,1085.714 871.427,1114.285 899.998,1114.285 899.998,1085.714 928.569,1085.714 928.569,1057.139 
		957.14,1057.139 957.14,1028.568 957.14,999.997 	"/>
	<polygon fill="#FFFFFF" points="928.569,885.713 928.569,914.284 899.998,914.284 899.998,942.855 871.427,942.855 
		871.427,914.284 842.856,914.284 842.856,885.713 814.285,885.713 814.285,914.284 814.285,942.855 842.856,942.855 
		842.856,971.426 871.427,971.426 871.427,999.997 899.998,999.997 899.998,971.426 928.569,971.426 928.569,942.855 
		957.14,942.855 957.14,914.284 957.14,885.713 	"/>
	<polygon fill="#FFFFFF" points="928.569,771.427 928.569,799.998 899.998,799.998 899.998,828.57 871.427,828.57 871.427,799.998 
		842.856,799.998 842.856,771.427 814.285,771.427 814.285,799.998 814.285,828.57 842.856,828.57 842.856,857.141 871.427,857.141 
		871.427,885.712 899.998,885.712 899.998,857.141 928.569,857.141 928.569,828.57 957.14,828.57 957.14,799.998 957.14,771.427 	
		"/>
	<polygon fill="#FFFFFF" points="928.569,657.142 928.569,685.713 899.998,685.713 899.998,714.284 871.427,714.284 
		871.427,685.713 842.856,685.713 842.856,657.142 814.285,657.142 814.285,685.713 814.285,714.284 842.856,714.284 
		842.856,742.855 871.427,742.855 871.427,771.426 899.998,771.426 899.998,742.855 928.569,742.855 928.569,714.284 
		957.14,714.284 957.14,685.713 957.14,657.142 	"/>
	<polygon fill="#FFFFFF" points="928.569,542.856 928.569,571.427 899.998,571.427 899.998,599.998 871.427,599.998 
		871.427,571.427 842.856,571.427 842.856,542.856 814.285,542.856 814.285,571.427 814.285,599.998 842.856,599.998 
		842.856,628.569 871.427,628.569 871.427,657.14 899.998,657.14 899.998,628.569 928.569,628.569 928.569,599.998 957.14,599.998 
		957.14,571.427 957.14,542.856 	"/>
	<polygon fill="#FFFFFF" points="928.569,428.571 928.569,457.142 899.998,457.142 899.998,485.713 871.427,485.713 
		871.427,457.142 842.856,457.142 842.856,428.571 814.285,428.571 814.285,457.142 814.285,485.713 842.856,485.713 
		842.856,514.284 871.427,514.284 871.427,542.855 899.998,542.855 899.998,514.284 928.569,514.284 928.569,485.713 
		957.14,485.713 957.14,457.142 957.14,428.571 	"/>
	<polygon fill="#FFFFFF" points="928.569,314.285 928.569,342.856 899.998,342.856 899.998,371.427 871.427,371.427 
		871.427,342.856 842.856,342.856 842.856,314.285 814.285,314.285 814.285,342.856 814.285,371.427 842.856,371.427 
		842.856,399.998 871.427,399.998 871.427,428.569 899.998,428.569 899.998,399.998 928.569,399.998 928.569,371.427 
		957.14,371.427 957.14,342.856 957.14,314.285 	"/>
	<polygon fill="#FFFFFF" points="928.569,200 928.569,228.571 899.998,228.571 899.998,257.142 871.427,257.142 871.427,228.571 
		842.856,228.571 842.856,200 814.285,200 814.285,228.571 814.285,257.142 842.856,257.142 842.856,285.713 871.427,285.713 
		871.427,314.284 899.998,314.284 899.998,285.713 928.569,285.713 928.569,257.142 957.14,257.142 957.14,228.571 957.14,200 	"/>
	<polygon fill="#FFFFFF" points="928.569,85.715 928.569,114.283 899.998,114.283 899.998,142.854 871.427,142.854 871.427,114.283 
		842.852,114.283 842.852,85.715 814.285,85.715 814.285,114.283 814.285,142.854 842.852,142.854 842.852,171.428 871.427,171.428 
		871.427,199.999 899.998,199.999 899.998,171.428 928.569,171.428 928.569,142.854 957.14,142.854 957.14,114.283 957.14,85.715 	
		"/>
	<polygon fill="#FFFFFF" points="1014.284,85.715 1014.284,114.283 985.713,114.283 985.713,142.854 957.142,142.854 
		957.142,171.428 957.142,199.999 985.713,199.999 985.713,171.428 1014.284,171.428 1014.284,142.854 1042.855,142.854 
		1042.855,171.428 1071.426,171.428 1071.426,199.999 1100,199.999 1100,142.854 1071.426,142.854 1071.426,114.283 
		1042.855,114.283 1042.855,85.715 	"/>
	<polygon fill="#FFFFFF" points="1014.284,199.999 1014.284,228.57 985.713,228.57 985.713,257.141 957.142,257.141 
		957.142,285.715 957.142,314.286 985.713,314.286 985.713,285.715 1014.284,285.715 1014.284,257.141 1042.855,257.141 
		1042.855,285.715 1071.426,285.715 1071.426,314.286 1100,314.286 1100,257.141 1071.426,257.141 1071.426,228.57 1042.855,228.57 
		1042.855,199.999 	"/>
	<polygon fill="#FFFFFF" points="1014.284,314.286 1014.284,342.857 985.713,342.857 985.713,371.428 957.142,371.428 
		957.142,399.999 957.142,428.57 985.713,428.57 985.713,399.999 1014.284,399.999 1014.284,371.428 1042.855,371.428 
		1042.855,399.999 1071.426,399.999 1071.426,428.57 1100,428.57 1100,371.428 1071.426,371.428 1071.426,342.857 1042.855,342.857 
		1042.855,314.286 	"/>
	<polygon fill="#FFFFFF" points="1014.284,428.57 1014.284,457.141 985.713,457.141 985.713,485.712 957.142,485.712 
		957.142,514.286 957.142,542.857 985.713,542.857 985.713,514.286 1014.284,514.286 1014.284,485.712 1042.855,485.712 
		1042.855,514.286 1071.426,514.286 1071.426,542.857 1100,542.857 1100,485.712 1071.426,485.712 1071.426,457.141 
		1042.855,457.141 1042.855,428.57 	"/>
	<polygon fill="#FFFFFF" points="1014.284,542.856 1014.284,571.427 985.713,571.427 985.713,599.998 957.142,599.998 
		957.142,628.573 957.142,657.144 985.713,657.144 985.713,628.573 1014.284,628.573 1014.284,599.998 1042.855,599.998 
		1042.855,628.573 1071.426,628.573 1071.426,657.144 1100,657.144 1100,599.998 1071.426,599.998 1071.426,571.427 
		1042.855,571.427 1042.855,542.856 	"/>
	<polygon fill="#FFFFFF" points="1014.284,657.143 1014.284,685.711 985.713,685.711 985.713,714.282 957.142,714.282 
		957.142,742.856 957.142,771.427 985.713,771.427 985.713,742.856 1014.284,742.856 1014.284,714.282 1042.855,714.282 
		1042.855,742.856 1071.426,742.856 1071.426,771.427 1100,771.427 1100,714.282 1071.426,714.282 1071.426,685.711 
		1042.855,685.711 1042.855,657.143 	"/>
	<polygon fill="#FFFFFF" points="1014.284,771.427 1014.284,799.998 985.713,799.998 985.713,828.569 957.142,828.569 
		957.142,857.143 957.142,885.714 985.713,885.714 985.713,857.143 1014.284,857.143 1014.284,828.569 1042.855,828.569 
		1042.855,857.143 1071.426,857.143 1071.426,885.714 1100,885.714 1100,828.569 1071.426,828.569 1071.426,799.998 
		1042.855,799.998 1042.855,771.427 	"/>
	<polygon fill="#FFFFFF" points="1014.284,885.714 1014.284,914.285 985.713,914.285 985.713,942.856 957.142,942.856 
		957.142,971.43 957.142,999.998 985.713,999.998 985.713,971.43 1014.284,971.43 1014.284,942.856 1042.855,942.856 
		1042.855,971.43 1071.426,971.43 1071.426,999.998 1100,999.998 1100,942.856 1071.426,942.856 1071.426,914.285 1042.855,914.285 
		1042.855,885.714 	"/>
	<polygon fill="#FFFFFF" points="1014.284,999.997 1014.284,1028.568 985.713,1028.568 985.713,1057.139 957.142,1057.139 
		957.142,1085.714 957.142,1114.285 985.713,1114.285 985.713,1085.714 1014.284,1085.714 1014.284,1057.139 1042.855,1057.139 
		1042.855,1085.714 1071.426,1085.714 1071.426,1114.285 1100,1114.285 1100,1057.139 1071.426,1057.139 1071.426,1028.568 
		1042.855,1028.568 1042.855,999.997 	"/>
</g>
</svg>
