<?xml version="1.0" encoding="utf-8"?>
<!-- Generator: Adobe Illustrator 21.0.2, SVG Export Plug-In . SVG Version: 6.00 Build 0)  -->
<svg version="1.1" id="Layer_1" xmlns="http://www.w3.org/2000/svg" xmlns:xlink="http://www.w3.org/1999/xlink" x="0px" y="0px"
	 viewBox="0 0 340 275" style="enable-background:new 0 0 340 275;" xml:space="preserve">
<style type="text/css">
	.st0{fill:#FFFFFF;}
</style>
<g>
	<path class="st0" d="M192.1,79.2c-0.1-0.2-0.2-0.4-0.5-0.4c-0.2,0-0.4,0.2-0.4,0.4c0,0.3,0.2,0.3,0.4,0.3
		C191.8,79.5,192,79.6,192.1,79.2 M162.7,227.8c-0.1-0.5-0.5-0.7-0.8-0.9c0,0-0.2,0-0.2,0.1c-0.1,0-0.1,0.2-0.1,0.2
		C161.9,227.5,162.1,227.9,162.7,227.8 M160.7,230.7c0.2,0,0.3-0.1,0.3-0.3c0-0.4-0.2-0.6-0.6-0.6c-0.2,0-0.3,0-0.3,0.3
		C160,230.4,160.3,230.6,160.7,230.7 M72.6,47.5c-0.2,0.5-0.2,0.9,0,1.2c0.1,0.2,0.4,0.4,0.6,0.2c0.3-0.1,0.3-0.4,0.2-0.6
		C73.2,48.1,73.1,47.7,72.6,47.5 M151.2,204.7c0.6,0.7,1.2,0.5,1.9,0.4c0.1,0,0.2-0.1,0.2-0.3c0-0.2-0.2-0.3-0.4-0.3
		C152.3,204.5,151.7,204.6,151.2,204.7 M131.4,231.8c-0.2,0.6-0.3,1.1-0.1,1.7c0.1,0.3,0.3,0.3,0.6,0.3c0.1,0,0.2-0.2,0.2-0.3
		C131.6,233,131.8,232.3,131.4,231.8 M189.5,79.5c-0.5-0.6-0.6-0.7-1.3-0.7c-0.4,0-0.7,0.2-0.7,0.7
		C188.2,79.6,188.9,79.6,189.5,79.5 M163.6,226.9c0.6-0.8,0.3-1.5,0.2-2.2c0-0.2-0.4-0.1-0.4,0.1C163,225.6,163.4,226.1,163.6,226.9
		 M133.2,217.7c-2.1,1.5-2.4,2.1-1.7,3.1C131.8,219.6,133,219,133.2,217.7 M221.5,35.1c0.8-0.5,0.9-1,0.9-1.6c0-2.1,0-4.2,0-6.3
		c0-0.4-0.1-0.7-0.4-1c-0.2-0.2-0.5-0.4-0.8-0.1c-0.2,0.2-0.4,0.4-0.1,0.7c0.4,0.5,0.5,1.2,0.4,1.9
		C221.4,30.7,221.6,32.8,221.5,35.1 M164.1,97.3c3.2,4.4,3.1,6.7,0,10.9c0.5-0.5,1-0.6,1.6-0.6c0.2,0,0.4-0.2,0.4-0.4
		c0-0.2,0.1-0.5,0.2-0.7c0.7-0.9,1-2,0.9-3.2c-0.1-0.4-0.1-0.8,0-1.2c0.3-1-0.8-1.8-0.6-2.8c0-0.1-0.1-0.2-0.2-0.2
		c-0.5-0.1-1.3-0.2-0.5-1c0.1-0.2-0.1-0.4-0.3-0.5C165.3,97.1,164.8,97.2,164.1,97.3 M159.6,224c0.4-1,0.9-1.8,1.2-2.6
		c0.5-1.3,1.6-2.4,1.3-3.9c0-0.1,0-0.3,0.1-0.3c0.8-0.5,0.4-1.3,0.5-2c0.2-1.4-0.5-2.4-1.4-3.4c-0.2-0.2-0.4-0.7-0.7-0.4
		c-0.3,0.3,0.1,0.6,0.2,0.8c0.1,0.1,0.2,0.2,0.2,0.3c0.6,0.5,0.8,1.1,0.7,1.9c-0.1,0.6,0,1.2,0,1.7c0,0.3,0,0.6-0.2,0.8
		c-0.4,0.3-0.5,0.7-0.4,1.2c0,0.2-0.1,0.5-0.2,0.7c-0.5,0.7-0.3,1.7-1,2.3c0.2,0.6-0.2,1-0.5,1.4C159.2,222.8,159.2,223.3,159.6,224
		 M79.3,51.3c1.4-0.1,2.9,0.5,4.1-0.6c0.1-0.1,0.3-0.1,0.5,0c1,0.2,1.6-0.6,2.5-0.8c0.2-0.1,0.4-0.3,0.5-0.5
		c0.2-0.3,0.2-0.6-0.1-0.8c-0.2-0.2-0.5,0-0.7,0.1c-0.8,0.5-1.5,1.2-2.6,1c-0.1,0-0.3,0-0.3,0.1c-0.5,0.7-1.2,0.5-1.8,0.5
		c-0.8,0-1.6-0.1-2.4,0c-1.3,0.1-2.6-0.1-3.7-0.9c-0.2-0.1-0.3-0.2-0.5-0.1c-0.5,0.3-0.6,0.8-0.1,1c0.9,0.4,1.6,1.1,2.7,1
		C78.1,51.2,78.8,51.4,79.3,51.3 M155.3,239.9c0.1,0.5,0.4,0.5,0.6,0.8c0.5,0.8,1.5,1,2.3,1.3c0.7,0.3,1.4-0.1,2.1-0.5
		c1.6-0.8,2.4-2,2.4-3.7c0-0.4,0.1-0.8,0.2-1.2c0.1-0.4,0.5-0.6,0.5-1c-0.1-0.8-0.3-1.8,0.1-2.4c0.6-0.9,0.3-1.5-0.1-2.3
		c-0.1-0.2,0-0.5,0-0.7c0-0.3,0.1-0.6-0.1-0.8c-0.1,0-0.1,0-0.1,0c-0.6,0.3-0.8,0.8-0.7,1.4c0.1,0.7,0,1.4,0.4,2.1
		c0.5,0.8-0.7,1.3-0.5,2.2c0.4,1.7-0.7,3.1-1.3,4.6c-0.2,0.5-0.7,0.9-1.4,0.8c-0.5-0.1-1.1,0-1.6,0
		C157.1,240.4,156.2,240.3,155.3,239.9 M133.1,233c-0.5,1.6-0.2,2.1,1.4,2.4c0.2,0,0.4,0,0.6,0.2c0.3,0.5,0.9,0.4,1.3,0.4
		c4.4,0,8.7,0,13.1,0c0.6,0,1.2,0,1.7,0.1c0.5,0.1,1,0.1,1.5,0.1c0.2,0,0.5-0.1,0.5-0.3c0-0.3-0.2-0.4-0.5-0.4c0,0-0.1,0-0.1,0
		c-0.7,0.2-1.3,0.2-1.8-0.4c-0.1-0.2-0.4-0.1-0.6-0.1c-0.5,0-0.9,0.1-1.4,0.1c-4.1,0-8.1,0-12.2,0c-1.3,0-2.5-0.4-3.1-1.7
		C133.5,233.3,133.4,233.1,133.1,233 M163.5,53.4c-0.3,0.8,0.1,1.5-0.3,2c-0.4,0.6-0.4,1.2-0.3,1.8c0.1,2.4,0,4.9,0.1,7.3
		c0,1.7,0,3.4-0.1,5.1c0,0.7,0.3,1.5-0.5,2.1c-0.2,0.1-0.1,0.5-0.1,0.7c0,0.3,0,0.5-0.2,0.7c-0.3,0.3-0.4,0.7-0.4,1.1
		c0,0.3,0,0.5-0.2,0.7c-0.5,0.4-0.4,0.9-0.4,1.4c0,0.2,0,0.6-0.1,0.7c-1,0.9-0.2,2.3-1,3.3c0.5,1.1,0,2.1,0,3.2c0,0.2,0,0.5,0.1,0.7
		c0.6,1,0.2,2.3,0.9,3.2c0,0.1,0,0.2,0,0.2c0,0.8-0.2,1.6,0.6,2.2c0.2,0.1,0.1,0.4,0.1,0.6c-0.1,0.3-0.1,0.6,0.2,0.8
		c0.4,0.4,0.4,0.8,0.4,1.3c0,0.4,0.1,0.8,0.3,1.2c0.3,0.7,0.8,1.2,0.8,2c0,0.3,0,0.7,0.4,0.7c0.4,0,0.3-0.4,0.3-0.7
		c0-0.2,0-0.5-0.2-0.7c-0.4-0.7-0.5-1.5-0.6-2.2c-0.1-0.9-0.8-1.6-0.5-2.6c0-0.1,0-0.2-0.1-0.2c-0.6-0.5-0.5-1.2-0.5-1.8
		c0-0.3,0-0.5-0.2-0.7c-0.4-0.4-0.4-1-0.4-1.5c0-0.3,0-0.6-0.2-0.8c-0.5-0.5-0.4-1-0.5-1.6c0-1.1-0.1-2.2,0-3.4
		c0-0.9,0.2-1.7,0.6-2.6c0.4-1,1.4-2,1.2-3.2c0.6-0.7,0.7-1.5,0.7-2.4c0-0.1,0.1-0.2,0.2-0.3c0.4-0.3,0.4-0.8,0.4-1.2
		c0-5.1,0-10.3,0-15.4C163.9,54.4,163.9,53.9,163.5,53.4 M172.1,170.5c0.2,0.8-0.1,1.7,0.2,2.6c0.5,2,2.1,2,3.2,0.8
		c1-1.1,2.1-2.2,2.6-3.7c0.2-0.6,0.1-1.2,0.1-1.8c0.1-1.1-0.8-0.7-1.2-1c-0.3-0.2-0.7-0.3-1-0.5c-1-0.6-2-0.3-3,0.1
		c-0.3,0.1-0.7,0.4-0.7,0.8c0,0.8-0.9,1.5-0.2,2.3C172.2,170.1,172.2,170.3,172.1,170.5 M307.1,108.6c0.1-0.7-0.3-1.4-0.3-2.1
		c0-0.3-0.3-0.5-0.6-0.5c-0.5,0-0.8-0.1-0.9-0.6c-0.2-0.5-0.5-0.6-1.1-0.3c-0.7,0.4-1.2,1-1.7,1.6c-0.5,0.5-0.8,1.1-0.7,1.8
		c0.1,0.5,0,0.9-0.3,1.3c-0.2,0.3-0.2,0.6,0,0.9c0.1,0.2,0.3,0.4,0.3,0.5c-0.2,1.1,0.5,1.9,0.7,2.9c0.1,0.6,0.6,1,1.1,1.2
		c0.4,0.2,0.7-0.4,1-0.7c0.3-0.3,0.5-0.6,0.6-0.9c0.2-0.7,0.7-1.3,0.9-2C306.6,110.7,307,109.7,307.1,108.6 M250.8,237.8
		c0.2-1.3-0.5-2.4-0.8-3.6c-0.3-1-0.8-1.9-1.2-2.8c-0.1-0.4-0.5-0.6-0.9-0.5c-0.3,0-0.5,0.3-0.6,0.6c-0.1,0.5-0.4,0.9-0.7,1.3
		c-0.3,0.3-0.5,0.7-0.4,1.1c0,0.3-0.1,0.5-0.2,0.7c-0.4,1-1,2-1.1,3.1c-0.1,0.7-0.3,1.5,0,2.1c0.2,0.6,0.6,1.2,1.1,1.6
		c0.7,0.8,1.7,0.8,2.6,0.7c0.3,0,0.8,0,1-0.4C250,240.4,251,239.3,250.8,237.8 M177,33.9c-0.1,0.8,0.2,1.6,0.3,2.6
		c0.1,1.4,0.9,2.7,1.6,3.9c0.5,0.8,0.8,0.8,1.4,0.1c0.3-0.3,0.6-0.7,0.8-1.1c0.6-1.3,1.3-2.5,1.7-3.8c0.2-0.7,0.5-1.5,0.6-2.2
		c0.2-1.5-0.5-2.7-1.7-3.6c-1.2-0.8-2.9-0.4-3.8,0.8C177.2,31.5,177,32.6,177,33.9 M40.5,210.2c-0.5,0.3-0.8,0.6-1.1,1
		c-0.2,0.2-0.3,0.4-0.3,0.6c0.1,1.7,0.3,3.3,1.4,4.7c0.5,0.6,0.9,1.2,1.1,1.9c0.2,0.6,0.6,1.1,1,1.6c1.7,2,3.6,3.7,5.8,5.2
		c0.2,0.2,0.5,0.3,0.8,0.3c0.4,0.1,0.7,0.3,1.1,0.5c0.4,0.2,0.6,0.8,1.1,0.4c0.5-0.5,0-0.9-0.2-1.4c-0.1-0.3-0.4-0.5-0.6-0.8
		c-0.2-0.2-0.5-0.4-0.5-0.7c-0.1-1.3-1.2-2.2-1.7-3.4c-0.9-1.8-1.9-3.6-3-5.3c-0.8-1.3-1.4-2.7-2.9-3.5c-0.1-0.1-0.3-0.2-0.3-0.4
		c-0.2-0.8-1-1-1.3-1.7c-0.2-0.3-0.4-0.3-0.6-0.1c-0.2,0.2-0.6,0.1-0.6,0.5C39.9,209.9,40.2,209.8,40.5,210.2 M287.8,46.3
		c0.1,0.8,0,1.5,0.3,2c1.9,3.1,3.3,6.5,5.4,9.5c0.9,1.3,1.5,2.9,3,3.7c0.2,0.1,0.2,0.3,0.2,0.4c0.5,1.1,1.6,1.6,2.7,2.1
		c0.2-0.5,0-1,0.4-1.3c0.4-0.4,0.7,0.4,1.1,0.1c0-1-0.6-1.9-0.3-2.9c0-0.1-0.1-0.3-0.2-0.4c-0.2-0.2-0.3-0.5-0.3-0.8
		c0.1-0.7-0.3-1.3-0.7-1.8c-0.2-0.2-0.4-0.4-0.5-0.7c-0.5-1.5-1.5-2.6-2.4-3.9c-0.8-1-1.8-1.7-2.8-2.6C292,48.5,290,47.5,287.8,46.3
		 M131.3,206.5c-0.2,1.3-0.1,1.5,1.1,2c0.2,0.1,0.4,0.1,0.4,0.2c0.6,0.7,1.4,0.3,2.1,0.4c0.9,0.1,1.5-0.1,2-0.9
		c0.1-0.1,0.2-0.3,0.4-0.3c1.2-0.4,2.1-1.4,3.1-2.1c0.6-0.4,1.3-0.8,1.9-1.3c0.9-0.8,1.7-1.6,2.7-2.3c1.1-0.7,2-1.6,3.1-2.4
		c2.1-1.7,3.9-3.7,6-5.5c2.6-2.1,4.8-4.6,7.1-7c0.4-0.4,0.6-0.8,0.9-1.3c0.5-0.9,1.4-1.5,1.2-2.7c0.6-0.4,0.4-1,0.4-1.6
		c0-4.3-0.1-8.6,0-12.9c0-6.5,0.1-12.9,0.1-19.4c0-7.8,0.1-15.5-0.1-23.3c-0.1-4.6,0-9.1,0-13.7c0-0.9,0.1-1.7,0.1-2.6
		c0-0.2-0.1-0.4-0.4-0.4c-0.2,0-0.2,0.2-0.2,0.4c0,0.8,0,1.6-0.5,2.4c-0.1,0.1,0,0.3,0,0.5c0,13,0,25.9,0,38.9
		c0,9.6,0,19.2,0.1,28.9c0,1.3-0.4,2.5-0.7,3.6c-0.4,1.3-1.4,2.6-2.4,3.6c-1.1,1.2-2.4,2.3-3.8,3.3c-2.2,1.7-3.9,3.9-6.1,5.6
		c-1.9,1.4-3.5,3.1-5.3,4.7c-1.4,1.2-3,2.1-4.2,3.4c0,0-0.1,0.1-0.1,0.1c-1.2,0.6-2.4,1.3-3.4,2.3c-0.5,0.5-1.4,0.2-2,0.7
		c0,0-0.2-0.1-0.3-0.2c-0.3-0.3-0.7-0.3-1-0.5c-0.3-0.3-0.5-0.3-0.9,0c-0.6,0.4-0.8,0.3-1.1-0.4
		C131.6,206.8,131.7,206.6,131.3,206.5 M174.3,23.4c-0.5-0.2-1-0.1-1.5-0.1c-31.2,0-62.4,0-93.5,0c-1.1,0-2.2,0-3.3,0.6
		c-1.3,0.7-2.3,1.8-2.3,3.3c0,6.4,0,12.9,0,19.3c0,0.2,0,0.4,0,0.6c0,0.4,0.2,0.8,0.6,0.8c0.6,0,0.4-0.5,0.4-0.9c0-6.3,0-12.7,0-19
		c0-1,0.6-1.6,0.9-2.5c0.1-0.2,0.3-0.4,0.5-0.5c1-0.4,1.9-0.8,3.1-0.8c31.1,0,62.3,0,93.4,0c0.3,0,0.6,0,0.9,0
		C174.1,24.4,174.3,24.1,174.3,23.4 M32.9,173.1c0.2-0.8,0.7-1.4,0.9-2.1c0.3-0.7,0.8-1.3,1.4-1.9c0.6-0.6,1.4-1,1.9-1.8
		c1.5-2.2,1.7-3.6,0.7-6.1c0-0.1-0.1-0.2-0.1-0.4c0.1-0.7-0.2-1.3-0.5-1.9c-0.2-0.6-0.5-1-0.9-1.4c-0.4-0.4-0.4-1.3-1.3-0.7
		c0,0-0.2-0.1-0.3-0.2c-0.3-0.4-0.6-0.8-0.5-1.3c0-1.6,0-3.1,0-4.7c0-0.4,0.1-0.8-0.2-1.1c-0.5-0.5-0.4-1.1-0.4-1.6
		c-0.1-1.5,0.3-3-0.6-4.3c-0.1-0.2-0.1-0.4-0.1-0.6c0-1.1-0.7-1.8-1.2-2.7c-0.2-0.3-0.7-0.4-0.8,0.1c-0.1,0.5-0.6,0.9-0.6,1.5
		c-0.2,1.5-1.2,2.6-1.4,4c-0.1,0.6-0.4,1.1-0.4,1.8c0,0.4-0.1,0.7-0.2,1.1c-0.3,0.6-0.4,1.3-0.3,1.9c0,0.5,0.1,1,0,1.5
		c-0.7,2-0.5,4.1-0.2,6.1c0.2,1.4,0.2,2.8,0.7,4.1c0.3,1,0.4,2.1,0.7,3.1c0,0.2,0.1,0.3,0,0.5c-0.1,1.1,0.4,2,0.8,2.9
		c0.6,1.5,1.7,2.7,2.6,4C32.6,173,32.7,173,32.9,173.1 M177.7,56.7c-0.2-0.1-0.4-0.1-0.5-0.2c-0.8-0.3-1-0.2-1,0.7
		c0,0.8,0.2,1.6,0.6,2.2c0.8,1.5,1.5,3,2.7,4.3c0.8,0.8,1.5,1.6,2.5,2.1c0.2,0.1,0.4,0.2,0.6,0c0.1-0.1,0-0.3,0-0.4
		c-0.2-0.3-0.3-0.6-0.3-0.9c0-0.2,0-0.5,0.3-0.6c0.2-0.1,0.4,0,0.5,0.2c0.3,0.3,0.5,0.7,1,0.8c0.6,0.1,1.1,0.5,1.7,0.7
		c1.3,0.5,2.7,0.7,4,0.4c1.9-0.4,3.3-1.8,4.4-3.4c1.7-2.2,2.7-4.8,3.8-7.4c0.4-1,0.4-2,0-3c-0.4-0.9-1.5-1.1-1.9-2
		c0-0.1-0.1-0.1-0.2-0.1c-1.5-0.5-2.7-1.3-3.7-2.4c-0.1-0.1-0.3-0.3-0.5-0.4c-1.1-0.6-2.1-1.1-3.2-1.6c-0.4-0.2-0.8-0.4-1.2-0.3
		c-1.8,0.4-3.5,1-4.8,2.4c-1.2,1.4-2.2,2.9-3.2,4.4C178.3,53.5,177.3,54.8,177.7,56.7 M202.4,25.7L202.4,25.7c-4.4,0-8.7,0-13.1,0
		c-0.3,0-0.7,0-1,0c-0.2,0-0.4,0.2-0.4,0.4c0.1,1.1-0.4,2.1-0.4,3.2c0,0.9,0.2,1.8,0.4,2.8c0.2,1,0.4,1.9,0.7,2.8
		c0.5,1.4,1.1,2.7,1.1,4.2c0,0.3,0.2,0.6,0.3,0.9c0.1,0.4,0.4,0.6,0.8,0.7c1,0,1.9,0.1,2.9,0.5c0.6,0.3,1.2,0.4,1.7,0.8
		c0.3,0.2,0.6,0.4,1,0.5c1.5,0.4,3,0.9,4.3,1.8c0.5,0.3,1,0.7,1.6,1c0.2,0.1,0.6,0.3,0.8,0.1c0.4-0.3,0.7-0.8,1.3-0.7
		c0.8-1,2-1.4,3-2.1c0.7-0.5,1.3-1.1,2.1-1.5c0.8-0.4,1.5-0.8,2.3-1.3c1.1-0.6,2.1-1.4,3.2-1.9c1.5-0.8,2.9-1.7,4.4-2.3
		c0.5-0.2,0.6-0.4,0.6-0.9c0.1-2.3-0.2-4.6,0.2-6.9c0.1-0.4-0.2-0.8-0.4-1.2c-0.2-0.4-0.6-0.1-0.8-0.2c-1-0.4-2.1,0.1-3-0.8
		c-0.1-0.1-0.3,0-0.5,0C211.3,25.7,206.8,25.7,202.4,25.7 M132.4,226.4L132.4,226.4c0,1.6,0,3.1,0,4.7c0,0.5,0.1,0.9,0.6,0.8
		c0.7,0,1,0.4,1.5,0.8c0.5,0.5,1,1,1.9,1c4.4-0.1,8.8,0,13.2,0c0.7,0,1.3-0.2,1.8,0.5c0.1,0.1,0.3,0.2,0.5,0.1
		c0.9-0.3,1.5,0.1,2.2,0.5c1,0.6,1.9,1.3,2.4,2.4c0.4,1.1,1.4,1.4,2.2,1.8c0.6,0.3,1-0.7,1.5-1.1c0.2-0.2,0.4-0.4,0.6-0.6
		c0.2-0.2,0.4-0.4,0.3-0.7c-0.4-1.1,0.7-2.3-0.1-3.4c-0.1-0.1,0.1-0.3,0.1-0.5c0.4-0.8,0.3-0.9-0.5-1.2c-0.3-0.1-0.7,0-0.9-0.4
		c-0.4-0.8-1-1.7-0.6-2.7c0.2-0.6,0-0.9-0.3-1.3c-0.3-0.3-0.8-0.6-0.8-1.2c0.2-1.5-0.5-3,0.5-4.4c0.1-0.1,0-0.4,0-0.6
		c0-0.2,0-0.4,0.1-0.6c0.6-0.9,1.2-1.9,1.1-3c0-0.2,0-0.4,0.1-0.5c0.8-1,0.6-2.2,0.3-3.2c-0.3-1.1-0.5-2.3-1.1-3.3
		c-0.1-0.1-0.2-0.3-0.2-0.5c0.3-0.8-0.3-1-0.7-1.3c-0.4-0.3-0.9-0.6-1.3-0.9c-0.9-0.6-1.9-1.3-2.8-1.3c-1.4-0.1-3-0.7-4.4,0.4
		c-0.2,0.1-0.4,0.1-0.6,0c-0.2,0-0.4-0.1-0.6,0.1c-0.7,0.6-1.8,0.8-2.3,1.7c-0.2,0.2-0.3,0.5-0.7,0.5c-0.5,0-0.8,0.4-1.1,0.7
		c-0.7,0.7-1.3,1.4-2,2c-0.9,0.8-1.7,1.6-2.7,2.3c-1,0.6-2,1.4-2.9,2.2c-1,0.8-1.8,1.8-2.7,2.7c-1.1,1-1.6,2.2-1.5,3.7
		C132.5,224,132.4,225.2,132.4,226.4 M57.4,228.7c0.4,2,0.6,2.3,2.1,3.2c1.8,1,3.5,2,5.6,2.5c1.4,0.3,2.6,1.2,4.1,1.1
		c0.1,0,0.2,0,0.2,0.1c0.6,0.5,1.4,0.4,2.1,0.5c0.9,0.1,1.8,0.2,2.6,0.4c1,0.2,2,0.2,3.1,0.3c2.7,0,5.4,0.1,8-0.2
		c0.7-0.1,1.4-0.5,2.1-0.4c1.8,0.1,3.5-0.6,5.2-0.9c1.1-0.2,2.2-0.1,3.2-0.8c0.1-0.1,0.4,0,0.6,0c0.2,0,0.5,0,0.7-0.1
		c1.2-0.6,2.6-0.8,3.9-1.3c1.3-0.5,2.7-1,4-1.4c0.8-0.3,1.7-0.6,2.5-0.9c1.6-0.5,3.1-1.3,4.6-1.9c1.2-0.5,2.4-1.1,3.6-1.7
		c2.5-1.3,5.1-2.5,7.5-4c0.9-0.6,1.9-1,2.8-1.6c1.1-0.7,2.1-1.5,3.2-2.1c1.6-0.9,3-2.1,4.4-3.2c1.1-0.9,2.5-1.5,3.4-2.7
		c0-0.1,0.1-0.1,0.2-0.1c1.9-0.9,3.1-2.5,4.8-3.7c0.9-0.6,1.4-1.6,2.5-1.9c0.2,0,0.3-0.2,0.5-0.4c1-1.3,2.3-2.3,3.4-3.4
		c1.1-1,2.4-1.7,3.9-1.9c0.6-0.1,1.3,0,1.9-0.5c0.2-0.2,0.5-0.2,0.7,0c0.5,0.6,1.2,0.4,1.9,0.5c1.7,0.4,3,1.5,4.5,2.2
		c0.6,1.2,2.3,1.5,2.5,3c0.9,0.9,1,2.2,1.5,3.2c0.6,1.1,0,2.4,0.3,3.5c0.1,0.4,0.1,1-0.1,1.3c-0.6,0.9-1.1,1.9-1.4,2.9
		c-0.5,1.3-1.3,2.5-1.9,3.8c-0.5,0.9-1,1.9-1.4,2.9c-0.2,0.3-0.4,0.9,0.1,1.1c0.5,0.2,0.3-0.5,0.4-0.7c0,0,0-0.1,0.1-0.1
		c0.7-1.5,1.4-3,2.2-4.4c0.9-1.4,1.2-3,2.2-4.3c0.5-0.6,0.4-1.3,0.8-1.9c0.3-0.5,1.2-0.8,0.7-1.6c0,0,0.1-0.2,0.2-0.2
		c0.5-0.1,0.6-0.5,0.7-0.9c0.4-0.9,0.8-1.8,1.3-2.5c1.4-1.8,2.1-4,3.2-6c1.2-2.2,2.1-4.6,3.4-6.7c0.5-0.9,0.9-1.7,0.8-2.8
		c-0.1-0.4,0-0.8,0.3-1.1c0.6-0.7,0.5-1.5,0.3-2.3c-0.5-1.9-0.9-3.8-1.5-5.7c-0.1-0.5,0-1-0.3-1.4c-0.8-1.2-0.7-2.6-1.1-3.8
		c-0.3-0.9-0.9-1.3-1.6-1.8c-0.1-0.1-0.2,0-0.3,0c-1.2,0.7-2.3,1.4-3.1,2.7c-0.3,0.5-0.7,0.9-1.1,1.3c-1.2,1.3-2.6,2.4-3.7,3.8
		c-0.6,0.7-0.9,1.5-1.6,2.1c-1.8,1.6-3.3,3.4-5.3,4.8c-2.2,1.6-3.8,4-6.1,5.5c-1,0.7-1.8,1.7-2.7,2.6c-0.2,0.2-0.3,0.5-0.6,0.6
		c-0.9,0.3-1.5,1-2.1,1.6c-0.3,0.3-0.5,0.6-0.8,0.7c-0.8,0.2-1.4,0.8-1.9,1.4c-1,1.1-2.2,1.8-3.4,2.6c-1.6,1.1-3.1,2.3-4.7,3.3
		c-1.2,0.8-2.4,1.6-3.6,2.4c-0.5,0.3-1,0.4-1.4,0.7c-1.3,0.8-2.5,1.7-3.9,2.4c-1,0.5-1.9,1.1-2.8,1.5c-1,0.5-1.9,1.2-2.9,1.6
		c-1.6,0.6-3,1.4-4.6,2c-2.2,0.8-4.1,2.1-6.3,2.9c-1.1,0.4-2.3,0.5-3.2,1.4c0,0-0.1,0-0.1,0c-1.4,0.3-2.7,0.9-4.1,1.2
		c-1.8,0.4-3.5,1.1-5.2,1.4c-0.9,0.2-1.8,0.2-2.5,0.8c-0.2,0.2-0.5,0.2-0.7,0.2c-1.3-0.3-2.4,0.5-3.6,0.6c-1.1,0.1-2.2,0.3-3.3,0.6
		c-1,0.3-2,0.2-3,0.4c-1.1,0.3-2.4,0.1-3.6,0.3c-0.5,0.1-1.1-0.1-1.6,0.3c-0.2,0.1-0.5,0.2-0.7,0.2c-2.3-0.2-4.6,0.5-6.8-0.4
		c-0.1-0.1-0.3-0.1-0.5,0c-1.1,0.2-2.2-0.1-3.3-0.3c-0.9-0.1-1.8,0-2.8-0.4c-0.6-0.2-1.3-0.5-1.9-0.5
		C61.1,230,59.3,229.3,57.4,228.7 M281.5,44.2c0.1-0.5,0.4-1,0-1.5c-0.5-0.6-1.1-1.2-1.8-1.5c-2.1-1.1-4.2-2.2-6.5-3
		c-0.7-0.2-1.4-0.7-2.2-0.7c-0.9,0-1.6-0.4-2.4-0.4c-1.3-0.1-2.5-0.7-3.9-0.7c-1.3,0.1-2.7,0-4.1-0.1c-3.4-0.2-6.7,0.2-10.1,0.6
		c-0.5,0.1-1.1,0.1-1.5,0.4c-0.2,0.2-0.5,0.2-0.8,0.1c-0.7-0.1-1.4,0-2,0.4c-0.2,0.1-0.5,0.1-0.7,0.1c-1.4,0-2.6,0.6-3.9,1
		c-0.8,0.3-1.6,0.4-2.3,0.1c-0.4-0.2-0.7,0-1.1,0.1c-0.6,0.1-1,0.6-1.6,0.7c-1.2,0.2-2.4,0.7-3.5,1.2c-2.4,1-4.9,1.9-7.2,3.2
		c-2.5,1.4-5,2.4-7.4,3.9c-1.7,1-3.5,2-5.2,3c-1.9,1.2-3.7,2.4-5.5,3.6c-1.6,1.1-3,2.3-4.6,3.4c-1,0.7-1.9,1.5-2.8,2.2
		c-1.2,1-2.5,1.9-3.7,3c-1.8,1.7-3.6,3.4-5.4,5.1c-1.9,1.9-4.3,2.2-6.8,2.6c-0.1,0-0.2,0-0.2,0c-2.5-0.5-4.8-1.4-6.8-3
		c-2.2-1.8-3.4-4.3-3.9-7.1c-0.2-1.2-0.3-2.5,0.1-3.6c0.8-2,1.7-4,3.1-5.7c0.1-0.1,0.2-0.3,0.2-0.4c0.2-0.9,0.7-1.6,1.2-2.3
		c0.7-1.1,0.7-2.3,0.6-3.5c0-0.3-0.1-0.6-0.5-0.6c-0.3,0-0.5,0.2-0.6,0.4c-0.7,1.6-1.6,3-2.3,4.6c-0.3,0.6-0.9,1.2-0.9,1.9
		c0,0.9-0.4,1.5-0.7,2.2c-0.5,1.1-1.1,2.1-1.6,3.2c-0.7,1.7-1.9,3.1-2.1,5c0,0.3-0.3,0.6-0.5,0.9c-0.9,1.5-2.2,2.7-2.5,4.5
		c0,0.3-0.2,0.5-0.4,0.8c-0.3,0.7-0.7,1.3-1,2c-0.7,1.5-1.5,2.9-2,4.5c-0.4,1.3-1.2,2.5-1.6,3.8c-0.4,1.6-0.7,3,0.1,4.5
		c0.1,0.2,0.1,0.4,0.1,0.6c-0.1,0.6,0,1.1,0.4,1.5c0.2,0.2,0.2,0.5,0.2,0.8c0,0.3,0,0.5,0.2,0.7c0.5,0.4,0.5,0.9,0.5,1.5
		c0,0.4,0,0.7,0.3,1c0.2,0.2,0.3,0.4,0.3,0.7c-0.1,1.2,0.1,2.3,0.5,3.5c0.5,1.4,1.8,1.9,2.9,0.9c0.2-0.2,0.4-0.3,0.5-0.5
		c2.2-2.3,4.4-4.4,6.3-6.9c2-2.6,5.1-4,7.1-6.7c2.2-1.6,4.1-3.6,6.1-5.3c0.5-0.4,0.9-0.8,1.6-0.9c0.6,0,1.1-0.4,1.5-0.8
		c1.8-1.7,3.7-3.1,5.6-4.6c1.7-1.4,3.5-2.7,5.3-4c1.2-0.8,2.3-1.6,3.5-2.4c0.9-0.6,1.9-1.1,2.8-1.8c1.9-1.3,3.8-2.4,5.8-3.6
		c1.8-1.1,3.6-2,5.5-3c2.1-1.2,4.4-2.2,6.6-3.1c2-0.8,3.9-2,5.9-2.7c1.2-0.4,2.4-1,3.7-1.4c1.1-0.4,2.2-0.6,3.2-1.1
		c0.8-0.4,1.7-0.7,2.6-0.8c0.9-0.2,1.8-0.4,2.6-0.6c1.3-0.5,2.7-0.7,4.1-0.9c1.7-0.3,3.4-0.7,5.2-0.8c2.1-0.1,4.2-0.6,6.4-0.6
		c0.1,0,0.3,0,0.4-0.1c0.7-0.5,1.5-0.3,2.3-0.3c1.1,0,2.2,0,3.4,0c0.7,0,1.4-0.1,2,0.3c0.3,0.2,0.9,0.2,1.3,0.1
		c1.3-0.1,2.5,0.1,3.8,0.3c1.4,0.2,2.9,0.5,4.3,0.8C278.4,43.4,279.9,43.6,281.5,44.2 M173.7,25.9c-0.4-0.1-0.6,0.4-1,0
		c-0.4-0.4-0.9-0.3-1.4-0.3c-0.8,0-1.6,0.1-2.4,0c-3.9-0.2-7.9,0.1-11.8-0.1c-2.8-0.1-5.6,0.2-8.3,0c-4.1-0.2-8.1,0.2-12.2,0
		c-0.6,0-0.7,0.6-1.1,0.6c-0.5,0.1-0.6-0.7-1.3-0.6c-1,0.2-2,0.2-3,0c-0.6-0.1-0.7,0.6-1.1,0.6c-0.5,0-0.6-0.7-1.1-0.6
		c-3,0.3-6-0.1-9.1,0c-3.3,0.2-6.5,0-9.8,0.1c-3.1,0.1-6.1-0.1-9.2-0.1c-2.2,0-4.4,0.1-6.6,0.1c-0.7,0-1.3,0-1.7,0.7
		c-0.5-0.3-0.7-0.9-1.3-0.7c-0.6,0.2-1.2-0.1-1.9,0c-0.6,0.1-1.3-0.3-1.8,0.4c-0.7,0.8-0.9-0.8-1.5-0.4c0,0-0.1,0-0.1,0
		c-1.3,0.1-2.6,0-4,0c-1.5,0-3-0.3-4.4,0.6c-0.6,0.4-1.7,1.8-1.7,2.6c0,5.3,0,10.6,0,15.9c0,0.8-0.1,1.6,0.4,2.4
		c-0.2,0.1-0.3,0.2-0.4,0.2c-0.3,0.1-0.7,0.1-0.6,0.5c0,0.3,0.3,0.4,0.6,0.6c0.9,0.5,1.7,0.6,2.7,0.6c1.2-0.1,2.3,0,3.5,0
		c0.2,0,0.4,0.1,0.5,0c1-0.9,2.6-0.9,3.4-2.1c0.1-0.1,0.2-0.2,0.3-0.2c0.7,0,1.1-0.9,1.9-0.7c0.9,0.2,0.6-1.2,1.3-1.4
		c0.3-0.1,0.5-0.4,0.9-0.2c0.3,0.2,0.4,0.4,0.4,0.7c0,0.2-0.1,0.5,0.1,0.7c0.8,0.8,1.2,2.2,2.4,2.4c0.7,0.1,1,0.8,1.8,0.8
		c3.5-0.2,7,0,10.4-0.1c0.9,0,1.8,0.2,2.6-0.5c0.1-0.1,0.5-0.1,0.7-0.1c5.1,0,10.3,0,15.4,0c0.9,0,1.9-0.3,2.7,0.5
		c0.1,0.1,0.2,0.1,0.4,0c1.2-0.2,2.3,0.2,3.2,0.9c0.2,0.2,0.4,0.2,0.6,0c0.6-0.3,0.9-0.1,0.8,0.5c0,0.3-0.1,0.6,0.2,0.8
		c0.3,0.2,0.5,0,0.7-0.2c0.5-0.4,0.8-0.3,0.8,0.3c0,0.4,0.2,0.7,0.5,0.9c0.5,0.4,0.6,0.9,0.6,1.5c0,2.7,0,5.3,0,8
		c0,0.7-0.2,1.5,0.3,2.2c0.1,0.1,0.1,0.3,0,0.3c-0.6,0.8-0.3,1.7-0.3,2.5c-0.1,0.7-0.1,1.5,0.7,2c-0.7,0.4-0.8,0.9-0.7,1.6
		c0.1,0.7-0.1,1.3,0.5,1.8c-0.2,0.6-0.6,1-0.6,1.8c0.1,1.8,0,3.6,0,5.5c0,1.9,0,3.7,0,5.6c0,1.8,0.2,3.6,0,5.4c-0.1,1.3,0,2.7,0,4
		c0,0.4,0,0.7,0.3,1c0.5,0.4,0.6,0.8,0,1.2c-0.3,0.3-0.4,0.6-0.4,1c0,2.4,0,4.8,0,7.2c0,0.6-0.2,1.3,0.4,1.8c0.1,0.1,0.1,0.3,0,0.3
		c-0.9,0.8-0.3,1.9-0.5,2.8c-0.1,0.7,0.1,1.3,0.7,1.7c-0.6,0.4-0.8,1-0.7,1.6c0,1,0,2.1,0,3.1c0,7,0,13.9,0,20.9c0,0.4,0,0.7,0.3,1
		c0.5,0.4,0.5,0.8,0,1.2c-0.4,0.3-0.3,0.6-0.3,1c0,2.5,0,5,0,7.5c0,0.5-0.2,1.1,0.4,1.5c0.2,0.2,0.1,0.4,0,0.5
		c-0.3,0.3-0.3,0.7-0.3,1.1c0,0.7,0,1.3,0,2c-0.1,0.5,0.4,0.8,0.4,1.2c0,0.5-0.4,0.8-0.4,1.4c0,8.1,0,16.2,0,24.4
		c0,0.3,0,0.7,0.3,0.9c0.4,0.3,0.5,0.7,0.1,1c-0.3,0.3-0.4,0.7-0.4,1.1c0,2.7,0,5.4,0,8.1c0,0.6,0.6,0.8,0.5,1.3
		c0,0.5-0.6,0.7-0.5,1.3c0.1,1.6,0.2,3.2,0,4.8c-0.1,1,1,1.8,0.2,2.8c0,0,0.1,0.2,0.1,0.2c0.8,0.6,0.5,1.4,0.2,2
		c-0.2,0.5-0.4,1-0.7,1.6c-1-0.4-1.1-1.2-1.1-2.1c0-8.6,0-17.2,0-25.7c0-0.6,0.2-1.2-0.3-1.6c-0.2-0.2-0.2-0.4,0-0.6
		c0.5-0.5,0.4-1.1,0.4-1.6c0-1.2,0-2.4,0-3.6c0-11.7,0-23.5,0-35.2c0-0.6,0.2-1.3-0.4-1.9c-0.2-0.1-0.1-0.4,0.1-0.6
		c0.4-0.4,0.3-0.9,0.3-1.4c0-5.5,0-11.1,0-16.6c0-7.4,0-14.8,0-22.3c0-0.7,0.2-1.4-0.4-2c-0.1-0.1-0.1-0.3,0-0.4
		c0.5-0.5,0.4-1.1,0.4-1.6c0-2.7,0-5.5,0-8.2c0.1-2.7-0.1-5.4,0-8.1c0.1-5.1,0-10.2,0-15.3c0-0.4,0.2-0.9-0.1-1.1
		c-0.7-0.6-0.5-1.3-0.5-2.1c0-0.9,0-0.9-1-1c-0.3,0-0.6-0.1-0.8-0.3c-0.4-0.4-0.9-0.4-1.4-0.3c-0.5,0-1,0.1-1.5,0.1
		c-7.2,0-14.3,0-21.5,0c-0.3,0-0.6,0-0.9,0c-0.2,0-0.4-0.1-0.4-0.4c0-0.3,0.1-0.5,0.4-0.5c0.4,0,0.8-0.1,1.2-0.1
		c6.2,0,12.4,0,18.5,0c1,0,2.1,0.1,3.1,0.1c0.2,0,0.5,0.1,0.5-0.5c-0.9,0-2,0-2.8-0.5c-0.1-0.1-0.3,0-0.5,0c-5.8,0-11.7,0-17.5,0
		c-0.8,0-1.6-0.2-2.3,0.2c-0.5,0.3-1,0.4-1.5,0.4c-3.2,0-6.5,0-9.7,0c-0.3,0-0.7,0.1-0.8-0.1c-0.9-0.7-2.1-0.8-2.9-1.6
		c-0.3-0.2-0.6-0.2-0.7,0.1c-0.2,0.4-0.2,0.8,0,1.2c0.1,0.3,0.5,0.2,0.8,0.2c0.3,0,0.6,0,0.8,0.2c0.2,0.3,0.5,0.4,0.9,0.3
		c0.4,0,0.7,0.1,1,0.4c0.2,0.2,0.4,0.3,0.7,0.3c1.9,0,3.8,0.1,5.7-0.1c1.3-0.1,2.6,0,3.8-0.1c0.2,0,0.4,0,0.6,0.1
		c0.2,0.1,0.3,0.3,0.3,0.5c0,0.2-0.2,0.3-0.3,0.3c-0.3,0-0.6,0-0.9,0c-0.7,0-1.5,0-2.2,0c-0.6,0-0.9,0.2-1,0.8
		c-0.3,1.5-1.4,2.5-1.9,3.8c-0.5,1.2-1.3,2.4-1.9,3.6c-0.8,1.7-1.6,3.4-2.4,5c-1.1,2.3-2.3,4.6-3.4,6.9c-1.6,3.4-3.3,6.9-5.1,10.3
		c-1.4,2.6-2.5,5.3-3.9,8c-1.4,2.7-2.8,5.5-4.2,8.2c-0.8,1.6-1.6,3.2-2.4,4.8c-1.2,2.6-2.6,5.2-3.8,7.8c-0.3,0.7-0.8,1.2-1,2
		c-0.4,1.3-1.2,2.5-1.7,3.7c-0.5,1.2-1.2,2.3-1.7,3.4c-0.9,1.9-1.8,3.8-2.7,5.6c-1.5,2.9-2.9,5.8-4.4,8.7c-1.6,3.1-3.1,6.3-4.7,9.4
		c-1.7,3.4-3.4,6.7-5.1,10.1c-1.8,3.6-3.5,7.3-5.4,10.8c-0.7,1.3-1.2,2.7-2,3.9c-0.3,0.4-0.4,0.8-0.4,1.3c0,0.5-0.1,1-0.1,1.5
		c0,0.8-0.5,1.4-0.5,2.2c0,2-0.7,3.9-0.7,5.9c0,0.9,0,1.8-0.1,2.7c-0.3,2.9,0,5.7,0.5,8.5c0.5,2.7,1.1,5.4,1.9,8
		c0.2,0.8,0.6,1.6,0.7,2.5c0.3,2.2,1.6,3.9,2.7,5.6c0.9,1.3,2.1,2.4,3.3,3.5c1.5,1.3,2.6,3,4.5,4c0.5,0.2,1,0.4,1.4,0.7
		c1.7,1.5,3.9,2.1,5.9,3c0.1,0.1,0.3,0.1,0.5,0.1c0.7-0.2,1.3,0.2,1.9,0.4c0.3,0.1,0.6,0.4,0.9,0.3c1.4-0.1,2.7,0.1,4,0.5
		c0.4,0.1,0.9,0.2,1.4,0.1c1.3-0.2,2.5,0.2,3.8,0.2c1.4,0,2.8,0.2,4.2,0c1.4-0.1,2.9-0.1,4.3-0.2c0.6,0,1.3,0,1.8-0.2
		c1.6-0.5,3.2-0.5,4.8-0.5c0.2,0,0.5,0,0.6-0.1c0.5-0.5,1.1-0.4,1.7-0.4c0.4,0,0.7-0.2,1.1-0.3c1.1-0.2,2-0.8,3.2-0.9
		c0.9-0.1,1.7-0.7,2.7-0.7c0.1,0,0.1-0.1,0.2-0.2c0.2-0.3,0.5-0.3,0.9-0.4c0.8-0.3,1.8-0.2,2.5-0.7c0.9-0.6,1.9-0.6,2.8-0.9
		c1.2-0.5,2.5-1,3.7-1.6c0.7-0.3,1.4-0.8,2.2-1c0.9-0.2,1.6-1,2.6-1c0.8-1,2.1-1.2,3.1-1.8c2.1-1.1,4-2.4,6.1-3.4
		c0.7-0.3,1.4-0.8,2-1.2c1.4-1.1,2.9-2,4.4-2.9c1.1-0.6,1.5-1.6,2.1-2.7c0.1-0.2,0-0.4-0.1-0.6c-0.5-0.9-0.7-1.9-0.2-2.9
		c0.1-0.2,0.1-0.4,0-0.6c-0.1-0.5-0.1-1,0.2-1.4c0.3-0.4,0.3-0.9,0.3-1.3c0-0.8,0-1.6,0-2.4c0-19.2,0-38.5,0-57.7
		c0-13.4,0-26.9,0-40.3c0-10.3,0-20.6,0-31c0-2.4,0.2-4.9-0.4-7.3c-0.1-0.2-0.1-0.5,0-0.7c1.1,0.3,1.1,0.4,1.1,1.4
		c0,0.3-0.2,0.7,0.1,0.9c0.5,0.5,0.4,1.1,0.4,1.7c0,11.8,0,23.7,0,35.5v42.6c0,14,0,28.1,0,42.1c0,9.4,0.1,18.8-0.1,28.2
		c0,0.6,0.2,0.8,0.7,0.4c0.6-0.4,1.1-0.5,1.7,0c0.3,0.3,0.8,0.5,1.2,0.2c0.7-0.4,1.5-0.5,2.1-1.2c0.2-0.2,0.3-0.5,0.5-0.5
		c0.9-0.1,1.2-0.8,1.8-1.3c0.2-0.2,0.4-0.5,0.5-0.5c0.8,0,1.3-0.6,1.7-1.2c0.5-0.7,1.3-0.6,1.8-1.2c0.7-0.8,1.5-1.5,2.3-2.3
		c0.2-0.2,0.5-0.6,0.7-0.6c0.8-0.1,1.2-0.7,1.7-1.2c0.6-0.6,1.2-1.2,1.8-1.8c0.2-0.2,0.3-0.5,0.7-0.5c0.6,0,0.9-0.5,1.3-0.8
		c2.1-2.1,4.2-4.3,6.4-6.4c0.8-0.8,1.3-1.8,1.7-2.8c0.2-0.5,0.6-0.9,0.6-1.6c0-4.3,0-8.5,0-12.8c0-5.8,0-11.6,0-17.4
		c0-0.6-0.2-1.2,0.3-1.6c0.1-0.1,0.1-0.3,0-0.4c-0.5-0.5-0.3-1.2-0.3-1.8c0-7,0-14.1,0.1-21.1c0-4.5,0-9-0.1-13.6
		c0-0.7-0.2-1.5,0.5-2c0.3-0.2,0.1-0.5,0.1-0.8c-0.3-1.2,0.3-2.2,1-3c0.6-0.8,1-1.6,1.4-2.5c0.2-0.4,0.6-0.6,0.6-1.2
		c-0.1-1,0-2-0.1-3c-0.1-0.5-0.2-0.9-0.5-1.3c-0.5-0.7-1.2-1.4-1.4-2.2c-0.4-1.4-1.6-2.5-1.7-4.1c0-0.1-0.2-0.3-0.3-0.4
		c-0.2-0.3-0.4-0.5-0.2-0.9c0.1-0.2,0-0.4-0.1-0.6c-0.8-0.8-0.6-1.9-1-2.8c-0.2-0.6,0-1.4-0.6-1.9c-0.1-0.1-0.1-0.3-0.1-0.5
		c0.3-1.1-0.3-2.1-0.1-3.2c0-0.2-0.1-0.4-0.2-0.6c-0.4-0.4-0.5-0.9,0-1.3c0.2-0.1,0.2-0.4,0.2-0.6c0-0.9,0.1-1.9,0.1-2.8
		c0-0.6,0.1-0.9,0.4-1.4c0.3-0.7,0.7-1.3,0.9-2.1c0.2-0.9,0.7-1.7,0.6-2.7c0,0,0-0.1,0.1-0.1c0.7-0.5,0.5-1.3,0.5-2.1
		c0-1.2,0-2.3,0-3.5c0-0.3-0.1-0.7,0.2-1c0.3-0.4,0.3-0.6,0-1c-0.2-0.2-0.1-0.6-0.1-0.8c0-2,0-4.1,0-6.1c0-0.3-0.1-0.7,0.2-1
		c0.5-0.5,0.4-1.1,0.4-1.6c0-0.4-0.2-0.9,0.1-1.2c0.5-0.7,0.7-1.6,1.5-2.1c0.4-0.3,0.7-0.7,0.9-1.2c0.6-1.4,1.4-2.7,2.2-4
		c0.3-0.5,0.5-1.1,0.5-1.8c0-0.3-0.2-0.7,0.2-0.9c0.6-0.3,0.5-0.7,0.5-1.3c0-0.7,0-1.4,0.9-1.4c0.2,0,0.3-0.1,0.3-0.3
		c0.6-1.3,1.1-2.6,1.8-3.8c0.7-1.2,1.3-2.5,1.9-3.8c0.5-0.9,0.7-1.8,0.7-2.9C173.7,28.7,173.7,27.3,173.7,25.9 M186,78.3
		c0.3-0.1,0.6,0.2,0.9,0c1.2-0.7,1.4-0.7,2.7,0c0.4,0.2,0.8,0.2,1.1-0.2c0.3-0.4,0.2-0.8-0.2-1.1c-0.4-0.3-0.7-0.7-1.1-1
		c-0.6-0.5-0.8-0.5-1.3,0c-0.4,0.4-0.9,0.8-1.4,1.2C186.4,77.6,186,77.8,186,78.3c-0.9-0.3-0.9,0.7-1.4,1.1
		C185.4,79.5,185.6,78.8,186,78.3 M156,205.5c-0.6-0.3-1.2-0.6-2-0.1C154.8,205.7,155.4,205.8,156,205.5c-0.2,0.3-0.2,0.5,0.1,0.7
		c0.3,0.1,0.6,0.2,0.9,0.3c1,0.5,1.8,1.3,2.5,2.1c0.2,0.2,0.4,0.6,0.8,0.3C159.2,207.4,157.7,206.3,156,205.5 M164.8,169.5
		c1.4-1.3,2.4-2.8,3.5-4.2c0.2-0.3,0.2-0.6,0.3-0.9c0-0.5,0.1-1.1,0.2-1.6c0.2-0.9,0.6-1.6,1.4-2.1c1-0.5,2-0.9,3.2-1.1
		c2.3-0.4,4.4,0,6.4,0.9c1.1,0.5,2.3,1,3.1,2c0.2,0.2,0.3,0.4,0.6,0.4c0.2,0,0.3,0.2,0.3,0.3c-0.2,0.7,0.1,1.3-0.1,2
		c-0.5,1.5-0.5,3.1-0.5,4.6c0,0.2,0.1,0.4,0.3,0.5c0.3,0.3,0.4,0.6,0.4,1c0,0.2,0,0.4,0.1,0.5c0.8,0.9,0.5,2.2,1.2,3.1
		c0,0,0.1,0.1,0.1,0.1c-0.4,1.1,0.6,1.8,0.5,2.8c0,0.3,0.1,0.6,0.3,0.9c0.1,0.2,0.3,0.4,0.2,0.6c-0.1,1,0.4,1.8,0.5,2.7
		c0.2,1,0.8,1.7,1,2.6c0.1,0.2,0.4,0.5,0.3,0.7c-0.5,0.9,0.1,1.7,0.3,2.5c0.2,0.9,0.4,1.8,0.2,2.8c-0.1,0.9,0,1.9,0,2.8
		c0,2.2-0.3,4.3-0.9,6.3c-0.6,2.1-1.5,4.1-2.6,6c-1.2,2.1-2.3,4.3-3.3,6.5c-0.7,1.6-1.6,3-2.5,4.5c-0.7,1.3-1.6,2.4-2.4,3.7
		c-0.2,0.2-0.3,0.5-0.4,0.8c-0.6,1.4-1.6,2.6-2.3,4c-0.7,1.2-1.5,2.3-2.2,3.5c-1.1,2.1-2.3,4.2-3.3,6.5c-0.7,1.6-1.4,3.3-2.4,4.7
		c-0.9,1.4-0.6,2.8-0.9,4.1c-0.1,0.8,0.3,1.7,0.9,2.5c0.6,0.8,1.1,1.6,1.1,2.7c0,0.5-0.2,0.9-0.4,1.3c-0.5,0.7-1.1,1.2-1.8,1.5
		c-1,0.4-2,0.9-3.1,1.1c-1.3,0.3-2.5,0.5-3.8,0.3c-2.5-0.3-4.9-1-6.9-2.6c-0.9-0.7-1.3-1.8-0.8-3c0.8-1.9,1.2-3.9,1.2-5.9
		c0-0.4,0-0.8,0.2-1.2c0.1-0.4,0.1-0.8-0.1-1.2c-0.2-0.5-0.3-0.9-0.4-1.4c-0.1-0.9-0.4-1.1-1.3-1.1c-2.4,0-4.9,0-7.3,0
		c-3.1,0-6.2,0-9.3,0c-0.8,0-1.6-0.3-2.4-0.2c-0.4,0-0.4-0.3-0.4-0.6c0.1-1.4-0.2-2.8-0.3-4.2c-0.5-0.1-0.8,0.2-1.1,0.4
		c-2.7,2-5.7,3.4-8.7,4.9c-1.2,0.6-2.3,1.2-3.5,1.8c-1.1,0.5-2.2,1.1-3.4,1.4c-1.1,0.2-2,0.8-3.1,1.1c-1.3,0.4-2.4,1.2-3.8,1.3
		c-0.5,0-1.1,0.1-1.5,0.5c-0.1,0.2-0.4,0.2-0.6,0.2c-1.1,0.1-2,0.5-3,0.8c-0.4,0.1-0.7,0.2-1.1,0.2c-0.3,0-0.6-0.1-0.8,0.1
		c-0.5,0.4-1,0.6-1.7,0.5c-0.2,0-0.3,0-0.3,0.3c0,0.1,0.1,0.2,0.2,0.2c0.7,0,1.3,0.7,2.1,0.5c0.4-0.1,0.8,0.4,1.1,0.7
		c0.2,0.3,0.4,0.4,0.7,0.2c0.2-0.1,0.4-0.2,0.5,0c0.1,0.2,0.1,0.4,0,0.6c-0.1,0.1-0.2,0.3-0.3,0.4c-1.3,0.8-2.6,1.6-4.1,2
		c-5.5,1.4-11.1,2.1-16.8,2.1c-3.1,0-6.2,0.1-9.3-0.3c-2.5-0.3-4.9-0.7-7.3-1.3c-1-0.3-2.3-0.4-3-1.5c-0.1-0.2-0.3-0.2-0.4-0.2
		c-0.9-0.5-1.1-1.4-0.5-2.1c0.2-0.3,0.5-0.5,0.8-0.2c0.2,0.2,0.4,0.3,0.5,0.1c0.4-0.5,0.9-0.7,1.4-0.9c0.1,0,0.2-0.2,0.2-0.4
		c0-0.2-0.2-0.4-0.4-0.4c-0.9,0.2-1.6-0.3-2.3-0.7c-0.7-0.4-1.5-0.5-2.2-0.9c-1.8-0.9-3.7-1.6-5.2-3.1c-1-0.2-1.5-1.3-2.5-1.5
		c-0.3-0.1-0.6-0.7-0.9-0.8c-1.3-0.2-1.8-1.4-2.7-2.1c-0.9-0.8-1.8-1.7-2.4-2.7c-0.8-1.3-2.1-2.3-2.7-3.7c-0.5-1.1-1.4-1.8-1.9-2.9
		c-0.4-1-1.3-1.8-1.6-2.9c-0.5-1.6-1.4-2.9-1.9-4.5c-0.2-0.9-0.7-1.8-1.1-2.7c-0.1-0.2-0.4-0.5-0.6-0.6c-0.3-0.3-0.7-0.2-0.8,0.2
		c-0.2,0.6-0.7,0.9-0.9,1.5c-0.1,0.3-0.4,0.5-0.7,0.3c-0.4-0.2-0.8-0.3-1.2-0.4c-0.2,0-0.4-0.2-0.4-0.3c-0.2-0.9-1-1.4-1.2-2.2
		c-0.8-2.7-1.4-5.4-2-8.1c-0.4-2.1-0.8-4.2-1.2-6.3c-0.3-1.7-0.4-3.4-0.6-5.2c-0.3-2.5-0.6-4.9-0.6-7.4c0-1-0.1-2.1-0.1-3.1
		c-0.1-14.6-0.1-29.2-0.1-43.8c0-0.8,0.2-1.5,0.5-2.3c1.2-2.8,2.5-5.5,3.7-8.3c0.5-1.2,1.4-1.8,2.2-2.6c0.5-0.4,1.4-0.2,1.9,0.4
		c0.2,0.2,0.3,0.5,0.4,0.7c0.2,0.3,0.5,0.4,0.8,0.5c0.5,0.1,0.4-0.4,0.6-0.6c1-1.1,1.7-2.4,2.4-3.7c0.8-1.4,1.6-3,2.4-4.4
		c0.8-1.4,1.5-3,2.1-4.5c0.4-1.1,1.4-1.9,1.6-3.2c0.2-1.2,1.3-2.2,1.5-3.5c0.1-0.5,0.6-0.9,0.8-1.4c1-2.2,2.2-4.2,3.1-6.4
		c0.5-1.1,1.3-2.1,1.4-3.4c0-0.5,0.5-0.6,0.7-1c0.3-0.8,0.9-1.6,1.1-2.5c0.2-0.6,0.9-1,1-1.7c0.2-0.9,0.8-1.6,1.1-2.4
		c0.7-1.8,1.8-3.4,2.4-5.1c0.3-0.8,0.7-1.5,1.1-2.2c0.6-1,0.9-2.2,1.6-3.1c0.8-1.2,1.2-2.5,1.8-3.7c1-1.8,2-3.7,2.7-5.7
		c0.4-1.2,1.2-2.2,1.8-3.4c1.2-2.3,2.2-4.8,3.4-7.2c0.8-1.5,1.6-3.1,2.3-4.6c0.6-1.2,1-2.4,1.8-3.4c0.2-0.3,0.1-0.5-0.3-0.6
		c-0.1,0-0.2,0-0.2,0c-1.3-0.1-1.3-0.1-1.2-1.3c0-1.5-0.3-3,0.2-4.4c0.3-1,0-2,0.4-2.9c-0.3-1.9,0-3.8,0-5.7
		c-0.1-3.6-0.1-7.1,0-10.7c0-1.1,0.3-2.3,1.3-3c0.3-0.2,0.5-0.5,0.8-0.8c0.3-0.4,0.6-0.7,1.1-0.6c0.1,0,0.3,0,0.4,0
		c0.9-0.9,2-0.5,3.1-0.5c31,0,61.9,0,92.9,0c2.7,0,5.5,0.2,8.1-0.5c0.9-0.2,1.8-0.1,2.7,0.2c0.6,0.2,1.2,0.3,1.8,0.3
		c10.6,0,21.2,0,31.8-0.1c1.2,0,2.3,0.5,3.4,0.6c0.5,0.1,0.9,0.7,1.3,1.1c0.1,0.2,0.1,0.4-0.1,0.6c-0.2,0.2-0.4,0.2-0.6,0.1
		c-0.6-0.9-1.7-0.4-2.4-1c-0.7-0.5-1.8-0.1-2.7-0.1c-9,0-18.1,0-27.1,0h-1.5c0.3,0.7,0.8,1,1.5,1c0.6,0,1.2,0,1.9,0
		c9.1,0,18.2,0,27.2,0c0.7,0,1.2,0.4,1.6,0.8c0.4,0.4,0.7,0.6,1.1,0.2c0.3-0.3,0.7-0.3,1-0.3c0.7-0.1,0.8-0.2,0.6-1
		c-0.1-0.4-0.1-0.7,0.3-0.8c0.4-0.1,0.7,0.1,0.8,0.5c0.2,1.2,0.4,2.5,0.4,3.7c0.1,1.9,0,3.8,0,5.7c0,0.5,0.3,0.8,0.8,0.5
		c1.6-1,3.4-1.5,5.2-2.2c1.9-0.8,3.9-1.4,5.9-2.1c0.8-0.3,1.7-0.6,2.5-0.9c0.3-0.1,0.7-0.2,1-0.2c0.6,0.2,1.1,0.2,1.6-0.3
		c0.2-0.1,0.4-0.1,0.6,0c0.2,0,0.5,0.1,0.6,0c1.2-0.9,2.6-0.4,4-0.6c0.1,0,0.3,0,0.4-0.1c0.6-0.7,1.4-0.6,2.2-0.5
		c0.4,0,0.8-0.1,1.1-0.3c0.6-0.3,1.2-0.5,1.9-0.3c0.4,0.1,0.8-0.1,1.2-0.3c0.4-0.2,0.7-0.4,1.2-0.4c3,0,6,0,9,0c0.7,0,1.5,0.2,2.2,0
		c0.1,0,0.3,0,0.4,0c1,0.6,2.1,0.4,3.1,0.5c0.3,0,0.6,0,0.9,0.1c0.6,0.3,1.3,0.6,2,0.4c0.2-0.1,0.4,0.1,0.6,0.2
		c1.2,0.6,2.5,0.9,3.9,1.2c1.9,0.4,3.8,1,5.5,1.9c0.5,0.3,1,0.3,1.5,0.5c0.9,0.3,1.7,0.8,2.5,1.3c1.1,0.7,2.1,1.5,3.3,1.9
		c1.1,0.3,1.6,1.3,2.5,1.8c0.9,0.5,1.7,1.2,2.2,2.1c0.9,1.4,2.2,2.3,3.3,3.5c0.4,0.4,0.7,1,1,1.6c1,1.9,2.5,3.4,3.3,5.3
		c0.2,0.6,0.8,1,1,1.6c0.6,1.7,1.5,3.2,2.1,4.8c0.7,1.9,1.3,3.7,2.1,5.6c0.5,1.3,1.2,2.5,1.7,3.7c0.7,1.7,1.2,3.4,1.8,5.1
		c0.7,1.9,1.1,3.9,1.6,5.9c0.5,1.9,1,3.8,1.1,5.8c0.2,2.5,0.6,5,0.6,7.5c0,2.4,0.1,4.8,0.4,7.2c0.2,1,0.1,2,0,3
		c-0.2,2.1-0.1,4.2-0.7,6.3c-0.1,0.2-0.1,0.4,0,0.6c0.3,1.5,0.4,3.1,0.8,4.6c0.2,0.8,0.7,1.4,0.8,2.2c0.1,0.7,0.2,1.5,0.5,2.2
		c0.2,0.5,0,1.3,0.1,1.9c0.3,1.1,0.1,2.2,0.3,3.3c0.1,0.7-0.2,1.4-0.3,2.2c-0.2,1.6-0.2,3.3-0.7,4.9c-0.4,1.4-0.9,2.7-1.6,3.9
		c-0.2,0.3-0.3,0.7-0.4,1c-1.4,2.6-2.6,5.4-4,8c-0.7,1.3-1.5,2.4-2.1,3.7c-0.7,1.5-1.8,2.7-2.4,4.3c-0.3,0.7-1,1.1-1.2,1.9
		c-0.6,1.7-1.8,3-2.6,4.6c-0.8,1.6-2.2,3-2.7,4.8c-0.1,0.2-0.2,0.4-0.4,0.6c-0.4,0.5-1,0.9-0.7,1.7c0,0.1-0.1,0.2-0.2,0.3
		c-1.4,2.2-2.3,4.5-3.4,6.8c-0.6,1.3-1.2,2.7-2,3.9c-0.6,1-0.8,2.2-1.4,3.2c-1,1.8-1.8,3.7-2.8,5.5c-0.6,1.2-1.2,2.5-2,3.7
		c-1,1.3-1.6,2.9-2.7,4.1c0,0.9-1,1.3-0.9,2.3c0.1,0.5-0.5,1.1-0.8,1.7c-0.8,1.8-1.9,3.5-2.6,5.4c-0.4,1-1.1,2-1.6,3
		c-0.4,1.1-1.2,2-1.3,3.2c-1.1,1.4-1.5,3.1-2.4,4.5c-0.7,1.1-1.1,2.4-1.7,3.6c-0.9,1.9-1.8,3.7-2.8,5.6c-0.1,0.1-0.3,0.3-0.3,0.4
		c0.1,1.5-1.1,2.4-1.6,3.7c-0.4,1.3-1.2,2.4-1.9,3.6c-0.2,0.3-0.4,0.6-0.5,1c-0.2,1-0.8,1.8-1.2,2.7c-0.4,0.9-0.9,1.8-1.2,2.6
		c-0.7,1.6-1.5,3.1-2.2,4.7c-0.9,2.1-2.2,3.9-3,6.1c-0.4,1.4-0.8,2.6,0.1,3.9c0.7,1,1.1,2.1,0.9,3.4c-0.1,0.7-0.3,1.2-0.9,1.5
		c-1.1,0.7-2.3,1.5-3.5,1.8c-2,0.5-4,0.8-6.1,0.4c-1.2-0.2-2.3-0.7-3.4-1.1c-1.1-0.4-1.8-1.3-2.7-1.9c-0.5-0.3-0.5-1-0.4-1.6
		c0.1-0.6,0.3-1.3,0.6-1.9c0.5-1,0.8-2,0.7-3.1c-0.1-0.8,0.2-1.5,0.3-2.2c0.2-0.9,0.2-1.9-0.2-2.9c-0.6-1.5-1.4-3-1.3-4.7
		c-0.9-1.7-0.6-3.6-0.4-5.4c0.2-1.7,0-3.4,0.8-5c-0.4-1.2,0.6-2.1,0.8-3.1c0.1-0.7,0.5-1.2,1-1.8c0.6-0.6,1-1.5,1.4-2.3
		c0.7-1.4,1.2-2.8,1.9-4.1c0.4-0.8,1.1-1.4,1.4-2.3c0.1-0.4,0.4-0.7,0.4-1.1c0-0.1,0-0.3,0-0.4c0.8-0.5,0.6-1.6,1.3-2.1
		c0.7-0.6,0.2-1.6,0.9-2c-0.1-0.9,0.7-1.4,1-2.1c0.8-1.7,1.8-3.4,2.6-5.1c0.9-1.8,1.8-3.6,2.7-5.4c0.9-1.8,1.8-3.6,2.7-5.4
		c0.7-1.5,1.5-2.9,2.3-4.3c0.7-1.4,1.5-2.8,1.8-4.4c0,0,0-0.1,0-0.1c1-0.7,1-1.9,1.6-2.8c0.3-0.6,0.8-1,0.8-1.8
		c0-0.5,0.7-0.6,0.8-1.2c0.3-0.7,0.4-1.5,0.9-2.2c0.6-0.8,0.9-1.8,1.3-2.8c0.4-0.8,0.8-1.7,1.2-2.5c0.7-1.1,1.2-2.3,1.7-3.4
		c0.6-1.2,1.1-2.4,1.7-3.7c0.8-1.6,1.7-3.1,2.3-4.7c0.4-0.9,1.1-1.7,1.5-2.7c0.7-1.6,1.5-3.1,2.3-4.6c1.2-2.4,2.5-4.8,3.7-7.3
		c0.5-1,0.9-2.2,1.4-3.2c1-1.8,1.7-3.7,2.8-5.5c0.1-0.1,0.1-0.2,0.1-0.3c0.4-1.7,1.4-3.1,2.3-4.6c0.6-1,1.2-2,1.7-3.1
		c0.2-0.4,0.4-0.6,0.6-0.9c0.3-0.3,0.6-0.6,0.7-1.1c0.1-0.7,0.6-1.2,1-1.7c1.4-2.1,2.3-4.4,3.4-6.6c0.7-1.4,1.6-2.7,2.1-4.2
		c0.1-0.4,0.2-0.7,0.2-1.1c0-1.2,0.1-2.5,0.2-3.7c0-0.1,0-0.3,0-0.4c0.6-1.6,0.3-3.3,0.6-4.9c0.3-1.7,0.3-3.5,0.6-5.2
		c0-0.1,0-0.2,0-0.2c-0.1-4.1,0-8.2-1.3-12.1c-0.3-0.9-0.4-1.9-0.6-2.9c-0.4-1.6-0.9-3.3-1.4-4.9c-0.8-2.2-1.4-4.5-3-6.5
		c-0.8-1-1.6-1.8-2.4-2.7c-1.1-1.2-2.4-2.1-3.6-2.9c-1.6-1.1-3.2-2.2-5.1-2.9c-1.1-0.4-2-1-3.2-1.3c-1.3-0.3-2.5-1.2-4-1
		c-0.2,0-0.4,0-0.6,0c-1.9-0.6-3.8-0.4-5.8-0.6c-0.3,0-0.6-0.2-1-0.3c-0.9-0.2-1.8-0.3-2.7-0.2c-2.1,0.2-4.1,0.1-6.2,0.2
		c-1.3,0.1-2.6,0.3-3.9,0.4c-0.8,0.1-1.6,0.1-2.4,0.1c-0.9,0.1-1.8,0.2-2.7,0.4c-0.6,0.2-1.2,0.6-1.9,0.2c-0.2-0.1-0.5,0-0.5,0.2
		c-0.2,0.5-0.5,0.7-1,0.4c-0.2-0.1-0.5,0-0.7,0.1c-0.5,0.4-1,0.5-1.6,0.4c-0.3,0-0.6,0-0.8,0.3c-0.2,0.2-0.4,0.4-0.8,0.3
		c-0.1,0-0.2-0.1-0.2,0c-1.4,0.9-3.1,0.5-4.5,1.4c-1-0.3-1.5,1.1-2.6,0.8c0,0-0.1,0-0.1,0c-0.4,0.8-1.4,0.6-2,1.1
		c-0.6,0.5-1.4,0.8-2.1,1c-0.9,0.2-1.4,1.1-2.3,1c-0.9,0.9-2.3,0.7-3.2,1.8c-0.6,0.7-1.6,0.8-2.4,1.2c-1.3,0.7-2.6,1.5-4,2
		c-0.4,0.1-0.6,0.7-0.9,0.8c-1.1,0.2-1.6,1.2-2.4,1.7c-0.8,0.5-1.6,1.2-2.4,1.6c-0.7,0.3-1.2,1.1-2.1,1.1c-0.2,0-0.3,0.3-0.5,0.5
		c-0.3,0.4-0.7,0.8-1.3,1c-0.2,0-0.4,0.1-0.5,0.3c-0.8,1.1-2.3,1.3-3.1,2.5c-0.3,0.4-0.8,0.3-1.2,0.6c-0.9,0.8-1.6,1.7-2.6,2.4
		c-0.4,0.3-0.7,0.5-1.1,0.5c-0.6,0-1,0.2-1.4,0.6c-0.3,0.4-0.6,0.7-1.1,0.8c-0.4,0.1-0.7,0.4-1,0.7c-2.4,2.8-5.3,5.2-7.9,7.9
		c-1.4,1.5-3.2,2.7-4.3,4.6c-0.3,0.5-0.9,0.9-1.4,1.2c-1.1,0.8-1.9,1.9-2.8,2.8c-1.4,1.4-2.9,2.9-4.3,4.3c-1.7,1.7-3.3,3.3-4.9,5
		c-0.5,0.5-0.8,1.1-0.8,1.9c-0.2,2.4-1.2,3.6-3.7,4c0,0-0.1,0-0.1,0c-0.6,0.2-1.4-0.1-1.8,0.4c-0.3,0.5-0.1,1.2-0.1,1.8
		c-0.3,11.2-0.2,22.4-0.3,33.6c0,6.6,0.3,13.1,0.3,19.6C164.8,169,164.8,169.1,164.8,169.5"/>
</g>
</svg>
